<svg width="20" height="20" viewBox="0 0 20 20" fill="none" xmlns="http://www.w3.org/2000/svg">
<path fill-rule="evenodd" clip-rule="evenodd" d="M4.84318 9.85396C3.37871 11.3184 3.37871 13.6928 4.84318 15.1573L4.98963 15.3037C6.37321 16.6873 8.61645 16.6873 10 15.3037C10.2929 15.0108 10.2929 14.5359 10 14.2431C9.70714 13.9502 9.23227 13.9502 8.93937 14.2431C8.14157 15.0409 6.84809 15.0409 6.05029 14.2431L5.90384 14.0966C5.02516 13.2179 5.02516 11.7933 5.90384 10.9146L10.9188 5.89962C11.795 5.02348 13.2155 5.02348 14.0916 5.89962C14.9678 6.77576 14.9678 8.19627 14.0916 9.07241L11.8058 11.3583C11.4868 11.6772 10.9697 11.6772 10.6508 11.3583C10.3318 11.0393 10.3318 10.5222 10.6508 10.2032L12.9017 7.95231C13.1946 7.65942 13.1946 7.18455 12.9017 6.89165C12.6088 6.59876 12.1339 6.59876 11.841 6.89165L9.59011 9.14257C8.68537 10.0473 8.68537 11.5142 9.59011 12.4189C10.4948 13.3236 11.9617 13.3236 12.8664 12.4189L15.1523 10.1331C16.6142 8.67114 16.6142 6.30089 15.1523 4.83896C13.6904 3.37703 11.3201 3.37703 9.85818 4.83896L4.84318 9.85396Z" fill="#4A4A4A"/>
</svg>
