<svg width="20" height="20" viewBox="0 0 20 20" fill="none" xmlns="http://www.w3.org/2000/svg">
<path fill-rule="evenodd" clip-rule="evenodd" d="M10.5393 3.17653C10.1983 3.01342 9.80173 3.01342 9.46068 3.17653L4.21068 5.6874C3.77642 5.89509 3.5 6.3337 3.5 6.81507V7.99996C3.5 8.69031 4.05964 9.24996 4.75 9.24996V12.25H4.5C3.94772 12.25 3.5 12.6977 3.5 13.25V14.75C3.5 15.3022 3.94771 15.75 4.5 15.75H15.5C16.0523 15.75 16.5 15.3022 16.5 14.75V13.25C16.5 12.6977 16.0523 12.25 15.5 12.25H15.25V9.24996C15.9404 9.24996 16.5 8.69031 16.5 7.99996V6.81507C16.5 6.3337 16.2236 5.89509 15.7893 5.6874L10.5393 3.17653ZM12.25 9.24996H13.75V12.25H12.25V9.24996ZM9.25 9.24996H10.75V12.25H9.25V9.24996ZM6.25 9.24996H7.75V12.25H6.25V9.24996Z" fill="#4A4A4A"/>
</svg>
