<svg width="20" height="20" viewBox="0 0 20 20" fill="none" xmlns="http://www.w3.org/2000/svg">
<path d="M12 8C12.5523 8 13 7.55229 13 7C13 6.44772 12.5523 6 12 6C11.4477 6 11 6.44772 11 7C11 7.55229 11.4477 8 12 8Z" fill="#4A4A4A"/>
<path fill-rule="evenodd" clip-rule="evenodd" d="M7.41957 3.5H12.5804C13.1146 3.49999 13.5604 3.49998 13.9247 3.52974C14.3046 3.56078 14.6612 3.62789 14.9985 3.79973C15.5159 4.06339 15.9366 4.48408 16.2003 5.00153C16.3721 5.33879 16.4392 5.69545 16.4703 6.07533C16.5 6.43955 16.5 6.88538 16.5 7.41951V9.33045C16.5 9.86458 16.5 10.3105 16.4703 10.6747C16.4392 11.0546 16.3721 11.4112 16.2003 11.7485C15.9366 12.2659 15.5159 12.6866 14.9985 12.9503C14.6612 13.1221 14.3046 13.1892 13.9247 13.2203C13.8338 13.2277 13.7379 13.2333 13.6367 13.2374C13.5918 13.2458 13.546 13.25 13.5 13.25H8L7.99761 13.25H7.41955C6.88542 13.25 6.43955 13.25 6.07533 13.2203C5.69545 13.1892 5.33879 13.1221 5.00153 12.9503C4.57632 12.7336 4.21644 12.4109 3.95535 12.0156C3.87206 11.9276 3.81198 11.8215 3.77907 11.7068C3.62243 11.3819 3.5595 11.0389 3.52974 10.6747C3.49998 10.3104 3.49999 9.8646 3.5 9.33046V7.41957C3.49999 6.88542 3.49998 6.43956 3.52974 6.07533C3.56078 5.69545 3.62789 5.33879 3.79973 5.00153C4.06339 4.48408 4.48408 4.06339 5.00153 3.79973C5.33879 3.62789 5.69545 3.56078 6.07533 3.52974C6.43956 3.49998 6.88542 3.49999 7.41957 3.5ZM15 9.3C15 9.49916 14.9999 9.67553 14.9988 9.83333L14.8645 9.64147C14.2032 8.6967 12.8248 8.63876 12.0865 9.5247L11 10.8285L8.58854 7.93472C7.89232 7.09925 6.61071 7.09443 5.90823 7.92464L5 8.998V7.45C5 6.87757 5.00058 6.49336 5.02476 6.19748C5.04822 5.91036 5.0901 5.77307 5.13624 5.68251C5.25608 5.44731 5.44731 5.25608 5.68251 5.13624C5.77307 5.0901 5.91036 5.04822 6.19748 5.02476C6.49336 5.00058 6.87757 5 7.45 5H12.55C13.1224 5 13.5066 5.00058 13.8025 5.02476C14.0896 5.04822 14.2269 5.0901 14.3175 5.13624C14.5527 5.25608 14.7439 5.44731 14.8638 5.68251C14.9099 5.77307 14.9518 5.91036 14.9752 6.19748C14.9994 6.49336 15 6.87757 15 7.45V9.3Z" fill="#4A4A4A"/>
<path d="M4 15.75C4 15.3358 4.33579 15 4.75 15H10.25C10.6642 15 11 15.3358 11 15.75C11 16.1642 10.6642 16.5 10.25 16.5H4.75C4.33579 16.5 4 16.1642 4 15.75Z" fill="#4A4A4A"/>
<path d="M12.75 15C12.3358 15 12 15.3358 12 15.75C12 16.1642 12.3358 16.5 12.75 16.5H15.25C15.6642 16.5 16 16.1642 16 15.75C16 15.3358 15.6642 15 15.25 15H12.75Z" fill="#4A4A4A"/>
</svg>
