<svg width="20" height="20" viewBox="0 0 20 20" fill="none" xmlns="http://www.w3.org/2000/svg">
<path fill-rule="evenodd" clip-rule="evenodd" d="M11.5273 3.32704C10.9278 2.0212 9.07219 2.02119 8.47271 3.32704C8.10595 4.12592 7.1855 4.50719 6.36127 4.20162C5.014 3.70215 3.70191 5.01424 4.20138 6.36151C4.50695 7.18574 4.12568 8.1062 3.3268 8.47295C2.02095 9.07244 2.02095 10.928 3.3268 11.5275C4.12568 11.8942 4.50695 12.8147 4.20138 13.6389C3.70191 14.9862 5.014 16.2983 6.36127 15.7988C7.1855 15.4933 8.10595 15.8745 8.47271 16.6734C9.07219 17.9792 10.9278 17.9792 11.5273 16.6734C11.894 15.8745 12.8145 15.4933 13.6387 15.7988C14.986 16.2983 16.298 14.9862 15.7986 13.6389C15.493 12.8147 15.8743 11.8942 16.6732 11.5275C17.979 10.928 17.979 9.07244 16.6732 8.47295C15.8743 8.1062 15.493 7.18574 15.7986 6.36151C16.298 5.01424 14.986 3.70215 13.6387 4.20163C12.8145 4.50719 11.894 4.12592 11.5273 3.32704ZM8.99998 8.25022C8.99998 8.80251 8.55226 9.25022 7.99998 9.25022C7.44769 9.25022 6.99998 8.80251 6.99998 8.25022C6.99998 7.69794 7.44769 7.25022 7.99998 7.25022C8.55226 7.25022 8.99998 7.69794 8.99998 8.25022ZM12.5303 8.78055L8.53031 12.7806C8.23741 13.0734 7.76254 13.0734 7.46965 12.7806C7.17675 12.4877 7.17675 12.0128 7.46965 11.7199L11.4696 7.71989C11.7625 7.427 12.2374 7.427 12.5303 7.71989C12.8232 8.01278 12.8232 8.48766 12.5303 8.78055ZM13 12.2502C13 12.8025 12.5523 13.2502 12 13.2502C11.4477 13.2502 11 12.8025 11 12.2502C11 11.6979 11.4477 11.2502 12 11.2502C12.5523 11.2502 13 11.6979 13 12.2502Z" fill="#4A4A4A"/>
</svg>
