<svg width="162" height="100" viewBox="0 0 162 100" fill="none" xmlns="http://www.w3.org/2000/svg">
<path d="M96.7548 97.0633H31.7224C30.6547 97.0633 29.7811 96.1898 29.7811 95.1221V76.68C29.7811 75.6123 30.6547 74.7388 31.7224 74.7388H96.7548C97.8225 74.7388 98.6961 75.6123 98.6961 76.68V95.1221C98.6961 96.2868 97.9196 97.0633 96.7548 97.0633Z" fill="#828A91"/>
<path d="M36.5755 97.0635V97.9371C36.4785 99.1989 37.4491 100.17 38.6139 99.9754H89.7663C91.0281 100.17 91.9987 99.1018 91.9987 97.9371V97.0635H36.5755Z" fill="#1F2225"/>
<path d="M0 80.2759V11.7241C0 7.47586 3.49254 4 7.76119 4H122.239C126.507 4 130 7.47586 130 11.7241V80.2759C130 84.5241 126.507 88 122.239 88H7.76119C3.49254 88 0 84.6207 0 80.2759Z" fill="#1F2225"/>
<path d="M0 76.2759V7.72414C0 3.47586 3.49254 0 7.76119 0H122.239C126.507 0 130 3.47586 130 7.72414V76.2759C130 80.5241 126.507 84 122.239 84H7.76119C3.49254 84 0 80.6207 0 76.2759Z" fill="#42474C"/>
<path d="M119.523 79.0283H10.4708C9.88654 79.0283 9.49707 78.639 9.49707 78.055V7.00165C9.49707 6.41765 9.88654 6.02832 10.4708 6.02832H119.523C120.108 6.02832 120.497 6.41765 120.497 7.00165V78.055C120.497 78.639 120.108 79.0283 119.523 79.0283Z" fill="#1F2225"/>
<path d="M124.903 43.6784C125.975 43.6784 126.844 42.8093 126.844 41.7372C126.844 40.665 125.975 39.7959 124.903 39.7959C123.831 39.7959 122.962 40.665 122.962 41.7372C122.962 42.8093 123.831 43.6784 124.903 43.6784Z" fill="#6B7177"/>
<path d="M109.657 11.478H116.882C117.502 11.478 117.914 10.9199 117.914 10.3618C117.914 9.8037 117.502 9.24561 116.882 9.24561H109.657C109.038 9.24561 108.625 9.8037 108.625 10.3618C108.625 11.0315 109.038 11.478 109.657 11.478Z" fill="#B6BABF"/>
<path d="M14.0322 11.478H21.2573C21.8766 11.478 22.2895 10.9199 22.2895 10.3618C22.2895 9.8037 21.8766 9.24561 21.2573 9.24561H14.0322C13.4129 9.24561 13 9.8037 13 10.3618C13 11.0315 13.4129 11.478 14.0322 11.478Z" fill="#B6BABF"/>
<path d="M102.579 9.53661L104.811 11.4779L107.044 9.53661C105.879 8.46892 103.84 8.46892 102.579 9.53661Z" fill="#6B7177"/>
<path fill-rule="evenodd" clip-rule="evenodd" d="M23.4971 28.0283C23.4971 26.9238 24.3925 26.0283 25.4971 26.0283H87.4971C88.6016 26.0283 89.4971 26.9238 89.4971 28.0283C89.4971 29.1329 88.6016 30.0283 87.4971 30.0283H25.4971C24.3925 30.0283 23.4971 29.1329 23.4971 28.0283Z" fill="#D2D5D9"/>
<path fill-rule="evenodd" clip-rule="evenodd" d="M23.4971 47.0283C23.4971 45.9238 24.3925 45.0283 25.4971 45.0283H64.4971C65.6016 45.0283 66.4971 45.9238 66.4971 47.0283C66.4971 48.1329 65.6016 49.0283 64.4971 49.0283H25.4971C24.3925 49.0283 23.4971 48.1329 23.4971 47.0283Z" fill="#9FA5AB"/>
<path fill-rule="evenodd" clip-rule="evenodd" d="M23.4971 66.0283C23.4971 64.9238 24.3925 64.0283 25.4971 64.0283H78.4971C79.6016 64.0283 80.4971 64.9238 80.4971 66.0283C80.4971 67.1329 79.6016 68.0283 78.4971 68.0283H25.4971C24.3925 68.0283 23.4971 67.1329 23.4971 66.0283Z" fill="#D2D5D9"/>
<path d="M106.497 27.5283C106.497 30.0136 104.482 32.0283 101.997 32.0283C99.5118 32.0283 97.4971 30.0136 97.4971 27.5283C97.4971 25.043 99.5118 23.0283 101.997 23.0283C104.482 23.0283 106.497 25.043 106.497 27.5283Z" fill="#CD5747"/>
<path d="M106.497 66.5283C106.497 69.0136 104.482 71.0283 101.997 71.0283C99.5118 71.0283 97.4971 69.0136 97.4971 66.5283C97.4971 64.043 99.5118 62.0283 101.997 62.0283C104.482 62.0283 106.497 64.043 106.497 66.5283Z" fill="#CD5747"/>
<path d="M106.497 47.5283C106.497 50.0136 104.482 52.0283 101.997 52.0283C99.5118 52.0283 97.4971 50.0136 97.4971 47.5283C97.4971 45.043 99.5118 43.0283 101.997 43.0283C104.482 43.0283 106.497 45.043 106.497 47.5283Z" fill="#108060"/>
<g filter="url(#filter0_d_1_88332)">
<path d="M121 26.4873C118.791 26.4873 117 28.2782 117 30.4873V41.7345L111.497 47.1442L117 52.5538V62.4873C117 64.6964 118.791 66.4873 121 66.4873H153C155.209 66.4873 157 64.6964 157 62.4873V30.4873C157 28.2782 155.209 26.4873 153 26.4873H121Z" fill="white"/>
</g>
<path fill-rule="evenodd" clip-rule="evenodd" d="M144.667 44.309H146.867C147.133 44.309 147.467 44.4382 147.667 44.632C147.867 44.8258 148 45.1488 148 45.4072V56.3891C148 56.7121 147.867 56.9705 147.667 57.1643C147.467 57.3581 147.2 57.4873 146.867 57.4873H129.133C128.867 57.4873 128.533 57.3581 128.333 57.1643C128.133 56.9705 128 56.6475 128 56.3891V45.4072C128 45.0842 128.133 44.8258 128.333 44.632C128.533 44.4382 128.8 44.309 129.133 44.309H131.333H144.667ZM138 54.1927C136.8 54.1927 135.8 53.2237 135.8 51.9963V49.8C135.8 48.5726 136.8 47.6036 138 47.6036C139.2 47.6036 140.2 48.5726 140.2 49.8V51.9963C140.2 53.1591 139.2 54.1927 138 54.1927ZM141.467 44.309V39.0765C141.467 37.2677 140 35.7819 138.133 35.7819C136.267 35.7819 134.8 37.2677 134.8 39.0765V39.6062C134.8 40.5266 134.054 41.2728 133.133 41.2728C132.213 41.2728 131.467 40.5266 131.467 39.6062V39.0765C131.467 35.4589 134.467 32.4873 138.133 32.4873C141.8 32.4873 144.8 35.4589 144.8 39.0765V44.309H141.467Z" fill="#108060"/>
<defs>
<filter id="filter0_d_1_88332" x="106.497" y="22.4873" width="55.5029" height="50" filterUnits="userSpaceOnUse" color-interpolation-filters="sRGB">
<feFlood flood-opacity="0" result="BackgroundImageFix"/>
<feColorMatrix in="SourceAlpha" type="matrix" values="0 0 0 0 0 0 0 0 0 0 0 0 0 0 0 0 0 0 127 0" result="hardAlpha"/>
<feOffset dy="1"/>
<feGaussianBlur stdDeviation="2.5"/>
<feColorMatrix type="matrix" values="0 0 0 0 0 0 0 0 0 0 0 0 0 0 0 0 0 0 0.3 0"/>
<feBlend mode="normal" in2="BackgroundImageFix" result="effect1_dropShadow_1_88332"/>
<feBlend mode="normal" in="SourceGraphic" in2="effect1_dropShadow_1_88332" result="shape"/>
</filter>
</defs>
</svg>
