<svg width="20" height="20" viewBox="0 0 20 20" fill="none" xmlns="http://www.w3.org/2000/svg">
<path d="M14 15.9999H12C11.4477 15.9999 11 15.5522 11 14.9999V12.4999C11 12.2238 10.7761 11.9999 10.5 11.9999H9.5C9.22386 11.9999 9 12.2238 9 12.4999V14.9999C9 15.5522 8.55228 15.9999 8 15.9999H6C4.89543 15.9999 4 15.1045 4 13.9999V9.74258C4 8.94693 4.31607 8.18387 4.87868 7.62126L8.58579 3.91416C9.36684 3.13311 10.6332 3.13311 11.4142 3.91416L15.1213 7.62126C15.6839 8.18387 16 8.94693 16 9.74258V13.9999C16 15.1045 15.1046 15.9999 14 15.9999Z" fill="#4A4A4A"/>
</svg>
