<svg width="20" height="20" viewBox="0 0 20 20" fill="none" xmlns="http://www.w3.org/2000/svg">
<path d="M5.20163 3.75283C5.4387 3.31937 6.06125 3.31937 6.29832 3.75283L6.49442 4.11138C6.70089 4.4889 7.0113 4.7993 7.38882 5.00578L7.74736 5.20187C8.18083 5.43894 8.18083 6.0615 7.74736 6.29857L7.38882 6.49466C7.0113 6.70114 6.70089 7.01154 6.49442 7.38907L6.29832 7.74761C6.26869 7.80179 6.23303 7.8492 6.19286 7.88984C5.91164 8.1743 5.40907 8.12689 5.20163 7.74761L5.00554 7.38907C4.79906 7.01154 4.48866 6.70114 4.11113 6.49466L3.75259 6.29857C3.31912 6.0615 3.31912 5.43894 3.75259 5.20187L4.11113 5.00578C4.48866 4.7993 4.79906 4.4889 5.00554 4.11138L5.20163 3.75283Z" fill="#4A4A4A"/>
<path fill-rule="evenodd" clip-rule="evenodd" d="M12.4483 7.38948C12.2682 6.22318 10.5962 6.20029 10.3842 7.36123L10.3543 7.52475C10.0692 9.08638 8.83296 10.3001 7.26635 10.5565C6.11701 10.7446 6.09323 12.389 7.23666 12.6103L7.34159 12.6306C8.87448 12.9272 10.0731 14.1259 10.3698 15.6587L10.4017 15.8239C10.6355 17.0322 12.3647 17.0322 12.5985 15.8239L12.6234 15.6952C12.9237 14.1433 14.1453 12.9346 15.7002 12.6506C16.8844 12.4344 16.8195 10.722 15.629 10.5431C13.9984 10.2982 12.7 9.01905 12.4483 7.38948ZM11.5044 14.2767C12.0125 13.1204 12.9159 12.1826 14.0457 11.6302C12.8975 11.1202 11.9617 10.2149 11.4185 9.08169C10.9034 10.1801 10.022 11.0673 8.93031 11.5904C10.0803 12.1456 10.9969 13.0997 11.5044 14.2767Z" fill="#4A4A4A"/>
</svg>
