<svg width="20" height="20" viewBox="0 0 20 20" fill="none" xmlns="http://www.w3.org/2000/svg">
<path d="M3 10C3 6.13401 6.13401 3 10 3C12.2801 3 14.3056 4.09017 15.5837 5.77772C15.4752 5.75949 15.3637 5.75 15.25 5.75C14.2015 5.75 13.3414 6.55688 13.2568 7.58358C12.3653 8.00472 11.6803 8.79127 11.3949 9.74998L9.99997 9.74998C9.30774 9.74998 8.74997 9.18265 8.74997 8.49418C8.74997 8.10761 8.92893 7.739 9.23615 7.50184L9.69807 7.14527C9.91713 6.97618 10.0454 6.71508 10.0454 6.43836L10.0454 6.3976C10.0454 5.65076 10.6508 5.04533 11.3977 5.04533L11.4547 5.04533C11.6484 5.04533 11.8259 4.97607 11.9639 4.86097C11.3539 4.62776 10.6919 4.5 10 4.5C7.79719 4.5 5.89684 5.79499 5.01873 7.6652L6.90899 9.55545C7.2874 9.93385 7.49999 10.4471 7.49998 10.9822V11.5C7.49998 12.0523 7.9477 12.5 8.49999 12.5C9.32842 12.5 9.99999 13.1716 9.99999 14V15.5C10.431 15.5 10.8504 15.4504 11.2528 15.3567C11.2815 15.9035 11.5299 16.392 11.9113 16.7359C11.3037 16.9079 10.6626 17 10 17C6.13401 17 3 13.866 3 10Z" fill="#4A4A4A"/>
<path d="M15.25 7C15.6642 7 16 7.33579 16 7.75V8.5H16.75C17.1642 8.5 17.5 8.83579 17.5 9.25C17.5 9.66421 17.1642 10 16.75 10H14.75C14.3358 10 14 10.3358 14 10.75C14 11.1642 14.3358 11.5 14.75 11.5H15.25C16.4926 11.5 17.5 12.5074 17.5 13.75C17.5 14.9081 16.625 15.8619 15.5 15.9863V16.25C15.5 16.6642 15.1642 17 14.75 17C14.3358 17 14 16.6642 14 16.25V16H13.25C12.8358 16 12.5 15.6642 12.5 15.25C12.5 14.8358 12.8358 14.5 13.25 14.5H15.25C15.6642 14.5 16 14.1642 16 13.75C16 13.3358 15.6642 13 15.25 13H14.75C13.5074 13 12.5 11.9926 12.5 10.75C12.5 9.59182 13.3751 8.63802 14.5001 8.51372L14.5 8.5V7.75C14.5 7.33579 14.8358 7 15.25 7Z" fill="#4A4A4A"/>
</svg>
