<svg width="20" height="20" viewBox="0 0 20 20" fill="none" xmlns="http://www.w3.org/2000/svg">
<path fill-rule="evenodd" clip-rule="evenodd" d="M4.25522 5.84699C4.45499 4.49858 5.6124 3.5 6.97553 3.5H13.0245C14.3876 3.5 15.545 4.49858 15.7448 5.84699L16.4055 10.3071C16.4684 10.7316 16.5 11.1602 16.5 11.5894V13.25C16.5 15.0449 15.0449 16.5 13.25 16.5H6.75C4.95507 16.5 3.5 15.0449 3.5 13.25V11.5894C3.5 11.1602 3.53158 10.7316 3.59447 10.3071L4.25522 5.84699ZM6.97553 5C6.35593 5 5.82983 5.4539 5.73903 6.06681L5.15633 10H7.63962C8.17766 10 8.65533 10.3443 8.82547 10.8547L8.98359 11.3291C9.01762 11.4311 9.11315 11.5 9.22076 11.5H10.7792C10.8868 11.5 10.9824 11.4311 11.0164 11.3291L11.1745 10.8547C11.3447 10.3443 11.8223 10 12.3604 10H14.8437L14.261 6.06681C14.1702 5.4539 13.6441 5 13.0245 5H6.97553Z" fill="#4A4A4A"/>
</svg>
