<svg xmlns="http://www.w3.org/2000/svg" viewBox="0 0 20 20"><path d="M16.25 7.5H3.75v5h2.5v-1.25h7.5v1.25h2.5v-5Z"/><path d="M0 8c0-2.8 0-4.2.545-5.27A5 5 0 0 1 2.73.545C3.8 0 5.2 0 8 0h4c2.8 0 4.2 0 5.27.545a5 5 0 0 1 2.185 2.185C20 3.8 20 5.2 20 8v4c0 2.8 0 4.2-.545 5.27a5 5 0 0 1-2.185 2.185C16.2 20 14.8 20 12 20H8c-2.8 0-4.2 0-5.27-.545A5 5 0 0 1 .545 17.27C0 16.2 0 14.8 0 12V8Zm6.25 5.75V15c0 .69.56 1.25 1.25 1.25h5c.69 0 1.25-.56 1.25-1.25v-1.25h2.5c.69 0 1.25-.56 1.25-1.25v-5c0-.69-.56-1.25-1.25-1.25h-2.5V5c0-.69-.56-1.25-1.25-1.25h-5c-.69 0-1.25.56-1.25 1.25v1.25h-2.5c-.69 0-1.25.56-1.25 1.25v5c0 .69.56 1.25 1.25 1.25h2.5Z" clip-rule="evenodd"/></svg>