<svg width="20" height="20" viewBox="0 0 20 20" fill="none" xmlns="http://www.w3.org/2000/svg">
<path fill-rule="evenodd" clip-rule="evenodd" d="M8.0006 4.17582C8.0006 3.41587 8.61666 2.7998 9.37661 2.7998H10.6232C11.3831 2.7998 11.9992 3.41587 11.9992 4.17582V4.86345C11.9992 5.05431 12.1254 5.25939 12.3575 5.38066C12.5028 5.45657 12.6439 5.53926 12.7805 5.6283C13.0021 5.77273 13.2456 5.78087 13.4127 5.68443L14.0124 5.33817C14.6706 4.95819 15.5121 5.18369 15.8921 5.84183L16.5154 6.92137C16.8953 7.57951 16.6699 8.42107 16.0117 8.80104L15.3644 9.17479C15.2008 9.26922 15.0869 9.47741 15.0952 9.73517C15.0969 9.79048 15.0978 9.84601 15.0978 9.90173C15.0978 9.99294 15.0954 10.0836 15.0907 10.1738C15.0768 10.4375 15.1916 10.6522 15.3585 10.7486L16.0117 11.1257C16.6698 11.5057 16.8953 12.3473 16.5154 13.0054L15.8921 14.085C15.5121 14.7431 14.6706 14.9686 14.0124 14.5886L13.312 14.1843C13.1484 14.0898 12.9108 14.0953 12.6913 14.232C12.5827 14.2996 12.4714 14.3633 12.3575 14.4228C12.1254 14.5441 11.9992 14.7491 11.9992 14.94V15.751C11.9992 16.5109 11.3831 17.127 10.6232 17.127H9.37662C8.61666 17.127 8.0006 16.5109 8.0006 15.751V14.9399C8.0006 14.7491 7.87444 14.544 7.64232 14.4227C7.52844 14.3632 7.4171 14.2996 7.3085 14.232C7.08906 14.0953 6.85147 14.0897 6.68779 14.1842L5.98734 14.5886C5.3292 14.9686 4.48765 14.7431 4.10767 14.085L3.48439 13.0054C3.10442 12.3473 3.32991 11.5057 3.98805 11.1257L4.64139 10.7485C4.80834 10.6522 4.92311 10.4374 4.90922 10.1737C4.90448 10.0836 4.90208 9.99292 4.90208 9.90173C4.90208 9.84604 4.90298 9.79054 4.90476 9.73524C4.91304 9.47749 4.79909 9.2693 4.63553 9.17487L3.98804 8.80104C3.3299 8.42107 3.10441 7.57951 3.48439 6.92137L4.10766 5.84183C4.48764 5.18369 5.32919 4.95819 5.98733 5.33817L6.58714 5.68447C6.75419 5.78092 6.99776 5.77278 7.21931 5.62834C7.3559 5.53931 7.49704 5.45662 7.64232 5.38072C7.87444 5.25945 8.0006 5.05437 8.0006 4.86351V4.17582ZM10 11.4998C10.8284 11.4998 11.5 10.8282 11.5 9.99976C11.5 9.17133 10.8284 8.49976 10 8.49976C9.17157 8.49976 8.5 9.17133 8.5 9.99976C8.5 10.8282 9.17157 11.4998 10 11.4998Z" fill="#4A4A4A"/>
</svg>
