<svg width="20" height="20" viewBox="0 0 20 20" fill="none" xmlns="http://www.w3.org/2000/svg">
<path d="M5 10C5 7.23858 7.23858 5 10 5C12.7614 5 15 7.23858 15 10C15 10.5523 15.4477 11 16 11C16.5523 11 17 10.5523 17 10C17 6.13401 13.866 3 10 3C6.13401 3 3 6.13401 3 10C3 13.866 6.13401 17 10 17C10.5523 17 11 16.5523 11 16C11 15.4477 10.5523 15 10 15C7.23858 15 5 12.7614 5 10Z" fill="#4A4A4A"/>
<path d="M11.2897 9.84027C11.3666 10.3872 11.8723 10.7682 12.4192 10.6914C12.9661 10.6145 13.3471 10.1088 13.2703 9.56192C13.1869 8.96838 12.9409 8.40947 12.5597 7.94698C12.1784 7.48449 11.6767 7.13643 11.11 6.9413C10.5433 6.74616 9.93365 6.71154 9.34848 6.84127C8.76332 6.971 8.22543 7.26002 7.79427 7.67638C7.36312 8.09274 7.0555 8.62022 6.90543 9.2005C6.75536 9.78078 6.76868 10.3913 6.94392 10.9644C7.11916 11.5376 7.44949 12.0512 7.8984 12.4483C8.3473 12.8455 8.89729 13.1108 9.48756 13.2149C10.0315 13.3108 10.5501 12.9476 10.646 12.4037C10.7419 11.8598 10.3787 11.3411 9.83485 11.2452C9.60783 11.2052 9.39629 11.1032 9.22364 10.9504C9.05098 10.7977 8.92393 10.6002 8.85653 10.3797C8.78913 10.1592 8.78401 9.92444 8.84173 9.70126C8.89945 9.47807 9.01776 9.2752 9.18359 9.11506C9.34942 8.95492 9.5563 8.84376 9.78136 8.79386C10.0064 8.74397 10.2409 8.75728 10.4589 8.83233C10.6768 8.90739 10.8698 9.04125 11.0164 9.21913C11.1631 9.39702 11.2577 9.61198 11.2897 9.84027Z" fill="#4A4A4A"/>
<path d="M11.611 10.973C11.4294 10.9089 11.2271 10.9548 11.091 11.0909C10.9548 11.2271 10.909 11.4293 10.973 11.6109L13.0944 17.6213C13.1557 17.7951 13.3076 17.921 13.4898 17.9491C13.6719 17.9771 13.8547 17.9027 13.9654 17.7555L15.1371 16.1978L16.1746 17.2352C16.3699 17.4305 16.6865 17.4305 16.8817 17.2352L17.2353 16.8817C17.4305 16.6864 17.4305 16.3698 17.2353 16.1746L16.1978 15.1371L17.7555 13.9654C17.9028 13.8546 17.9772 13.6718 17.9491 13.4897C17.9211 13.3076 17.7951 13.1556 17.6214 13.0943L11.611 10.973Z" fill="#4A4A4A"/>
</svg>
