<svg width="100" height="100" viewBox="0 0 100 100" fill="none" xmlns="http://www.w3.org/2000/svg">
<g clip-path="url(#clip0_36_286)">
<path d="M50 100C77.6142 100 100 77.6142 100 50C100 22.3858 77.6142 0 50 0C22.3858 0 0 22.3858 0 50C0 77.6142 22.3858 100 50 100Z" fill="#7BF1A8"/>
<path d="M76.3399 47.4899L74.1199 45.4399L73.4199 41.2599L75.9699 37.4199L81.3699 38.6199L80.3099 43.9299L76.3399 47.4899Z" fill="white" stroke="white" stroke-width="0.23" stroke-miterlimit="10"/>
<path d="M81.2993 40.6404C81.5443 40.5406 81.7397 40.3477 81.8428 40.104C81.9459 39.8604 81.9482 39.5858 81.8493 39.3404C81.7329 39.1106 81.5522 38.9195 81.3293 38.7904C81.8493 37.4604 81.1293 36.9704 81.1293 36.9704C81.5593 35.4704 80.2893 35.2404 80.2893 35.2404C80.3228 34.9897 80.2697 34.7351 80.1388 34.5187C80.0078 34.3023 79.8069 34.1371 79.5693 34.0504M73.2693 38.4104C73.1192 38.5572 73.0009 38.7332 72.9218 38.9276C72.8426 39.122 72.8043 39.3306 72.8093 39.5404C73.4193 39.9704 73.5593 42.6604 73.5593 42.6604C73.9627 42.9024 74.2539 43.2943 74.3693 43.7504C73.5293 44.5004 74.4593 45.7504 74.4593 45.7504C74.4593 45.7504 73.9393 47.3104 73.7393 47.7504C73.5393 48.1904 73.1893 49.1004 73.1893 49.1004C73.1893 49.1004 71.1893 45.5504 70.8193 44.8004C70.5179 44.0269 70.4862 43.1743 70.7293 42.3804C70.9093 41.8604 70.2993 40.9904 70.2993 40.9904C70.5864 40.676 70.8062 40.3063 70.9455 39.9039C71.0848 39.5016 71.1405 39.0751 71.1093 38.6504C71.005 37.2861 70.569 35.9679 69.8393 34.8104C69.8393 34.8104 69.8393 31.8104 69.6893 30.6004C69.5393 29.3904 70.0693 28.4604 70.3293 27.2504C70.5893 26.0404 69.3293 23.7004 68.5993 22.2504C67.9365 21.0886 66.9682 20.1306 65.7993 19.4804C65.0638 18.954 64.3926 18.3431 63.7993 17.6604C63.1893 17.0504 62.2093 17.5104 61.2593 17.7404C60.5957 17.9114 59.9469 18.1354 59.3193 18.4104C59.1793 17.6004 58.2193 17.4104 57.5593 17.4104C56.866 17.3248 56.1908 17.129 55.5593 16.8304C55.0676 16.4253 54.6306 15.9581 54.2593 15.4404C54.2593 15.4404 53.7393 15.6404 53.4193 15.8104C52.8897 16.0509 52.3266 16.2094 51.7493 16.2804C51.0437 16.4268 50.3804 16.731 49.8093 17.1704C49.1371 17.7083 48.5297 18.3224 47.9993 19.0004C47.3993 19.6704 46.9993 20.1904 46.9993 20.1904C46.6535 20.0617 46.319 19.9045 45.9993 19.7204C45.3693 19.3804 44.4393 19.6704 43.6593 19.7804C43.378 19.832 43.0883 19.8113 42.8172 19.7203C42.5461 19.6294 42.3026 19.4712 42.1093 19.2604C41.6282 18.9052 41.0753 18.6594 40.4893 18.5404C39.7856 18.3443 39.1125 18.0515 38.4893 17.6704C37.6193 17.1704 37.1293 17.9004 36.5493 18.5104C35.9693 19.1204 34.9993 19.8804 33.9993 20.8304C32.9875 21.8611 32.1075 23.0132 31.3793 24.2604C31.1505 24.6119 31.0077 25.0124 30.9626 25.4294C30.9174 25.8463 30.9711 26.2681 31.1193 26.6604C31.2716 27.7675 31.2917 28.8887 31.1793 30.0004C31.0993 31.3304 30.6093 32.8004 30.3693 34.2404C30.2745 34.5954 30.2622 34.9674 30.3333 35.3279C30.4043 35.6884 30.5569 36.0279 30.7793 36.3204C30.1249 36.6086 29.5788 37.0968 29.2194 37.7149C28.8601 38.333 28.706 39.0492 28.7793 39.7604C19.6293 46.5404 19.7793 47.9604 19.7793 47.9604C19.0893 47.9604 17.3793 49.0504 18.2793 50.5304C19.1793 52.0104 21.1893 50.2904 21.1893 50.2904C22.2562 50.1741 23.3352 50.3306 24.3251 50.7451C25.315 51.1596 26.1836 51.8186 26.8493 52.6604C26.7316 53.0073 26.6992 53.3775 26.7549 53.7396C26.8106 54.1016 26.9528 54.4449 27.1693 54.7404C27.9193 55.4904 29.2193 54.9404 29.2193 54.9404C29.0017 55.166 28.8802 55.4671 28.8802 55.7804C28.8802 56.0938 29.0017 56.3949 29.2193 56.6204C28.5565 56.6425 27.9227 56.8974 27.4293 57.3404C28.1442 57.6422 28.778 58.1081 29.2793 58.7004C28.997 58.7099 28.7199 58.7791 28.4663 58.9034C28.2127 59.0277 27.9883 59.2043 27.8078 59.4216C27.6274 59.6388 27.495 59.8919 27.4194 60.164C27.3438 60.4362 27.3268 60.7212 27.3693 61.0004C28.0155 60.5392 28.7409 60.2003 29.5093 60.0004L29.5693 60.4304L30.0893 60.3104C30.0893 60.3104 30.2293 63.0204 30.1693 64.1204C30.1093 65.2204 29.9393 67.4704 29.9693 68.4004C29.9796 69.4948 30.1445 70.5822 30.4593 71.6304C31.0107 72.9506 31.7192 74.1996 32.5693 75.3504C33.1193 75.8404 33.9293 76.4504 34.9393 77.2904C35.8652 78.0588 36.8954 78.6918 37.9993 79.1704C39.1193 79.6904 39.6993 79.4104 40.0793 78.8304C40.4593 78.2504 39.2693 75.3604 38.7193 73.6004C38.323 72.1662 38.1942 70.6713 38.3393 69.1904C38.3993 68.1904 38.2293 67.6604 38.5393 67.3104C38.8493 66.9604 39.4393 64.9404 40.0393 63.6704C40.2187 63.2969 40.47 62.9624 40.7789 62.6861C41.0877 62.4098 41.4481 62.1972 41.8393 62.0604C42.428 63.3021 43.096 64.5046 43.8393 65.6604C44.4918 66.581 44.8413 67.682 44.8393 68.8104C44.874 69.8761 44.8239 70.9428 44.6893 72.0004C44.6162 72.6985 44.6162 73.4023 44.6893 74.1004C44.6893 75.2004 44.1993 80.8904 44.0893 81.8404C43.9793 82.7904 43.8293 84.5004 44.3993 84.6404C44.9693 84.7804 46.2193 83.1704 46.3993 82.7604C46.9746 82.069 47.5088 81.3444 47.9993 80.5904C48.5776 79.2449 49.0425 77.8534 49.3893 76.4304C49.803 74.9609 50.394 73.5472 51.1493 72.2204C52.1311 70.051 52.8851 67.7855 53.3993 65.4604C54.0393 62.8604 54.7593 58.4604 54.7593 58.4604C54.8447 58.158 55.0248 57.8909 55.2732 57.6983C55.5215 57.5057 55.8251 57.3978 56.1393 57.3904C57.2393 57.3904 57.9093 59.7904 57.9693 60.2804C58.0293 60.7704 57.9693 61.4604 57.9693 61.9504C57.9693 62.4404 58.5793 64.1504 58.7493 65.3604C58.8833 66.2026 59.0874 67.0322 59.3593 67.8404C59.3593 67.8404 58.0593 75.6104 57.7693 77.4504C57.4793 79.2904 60.5693 76.0004 61.6393 74.9004C62.7093 73.8004 64.0593 70.9004 65.6393 67.8304C67.2057 64.8978 68.4079 61.7847 69.2193 58.5604C69.5393 56.6304 67.6893 52.4404 67.6893 52.4404C67.9816 51.8407 68.091 51.1682 68.0039 50.5067C67.9168 49.8452 67.6369 49.224 67.1993 48.7204C66.5893 47.9404 67.9793 46.3504 67.9793 46.3504C69.7693 47.0204 72.0793 52.7304 72.5993 53.5404C72.8968 54.3441 72.9455 55.2187 72.7393 56.0504C73.0985 56.2282 73.5067 56.281 73.8993 56.2004C74.5293 56.0504 74.7893 53.8604 75.1093 52.0104C75.3298 50.8221 75.6994 49.6663 76.2093 48.5704M32.1393 50.8004C32.1393 50.8004 31.4993 49.0404 29.3893 49.9304C29.3893 49.9304 26.0393 47.5904 23.5893 47.5704C23.5893 47.5704 29.4793 41.9604 31.3293 41.3604C31.217 41.9824 31.3192 42.6241 31.6193 43.1804C31.888 43.4327 32.0913 43.7467 32.2115 44.0951C32.3317 44.4436 32.3653 44.8161 32.3093 45.1804C32.0793 45.9004 31.2393 47.7204 31.7593 48.2404C32.0112 48.4717 32.2329 48.7337 32.4193 49.0204C32.2273 49.594 32.1326 50.1956 32.1393 50.8004Z" fill="white"/>
<path d="M81.2993 40.6404C81.5443 40.5406 81.7397 40.3477 81.8428 40.104C81.9459 39.8604 81.9482 39.5858 81.8493 39.3404C81.7329 39.1106 81.5522 38.9195 81.3293 38.7904C81.8493 37.4604 81.1293 36.9704 81.1293 36.9704C81.5593 35.4704 80.2893 35.2404 80.2893 35.2404C80.3228 34.9897 80.2697 34.7351 80.1388 34.5187C80.0078 34.3023 79.8069 34.1371 79.5693 34.0504M73.2693 38.4104C73.1192 38.5572 73.0009 38.7332 72.9218 38.9276C72.8426 39.122 72.8043 39.3306 72.8093 39.5404C73.4193 39.9704 73.5593 42.6604 73.5593 42.6604C73.9627 42.9024 74.2539 43.2943 74.3693 43.7504C73.5293 44.5004 74.4593 45.7504 74.4593 45.7504C74.4593 45.7504 73.9393 47.3104 73.7393 47.7504C73.5393 48.1904 73.1893 49.1004 73.1893 49.1004C73.1893 49.1004 71.1893 45.5504 70.8193 44.8004C70.5179 44.0269 70.4862 43.1743 70.7293 42.3804C70.9093 41.8604 70.2993 40.9904 70.2993 40.9904C70.5864 40.676 70.8062 40.3063 70.9455 39.9039C71.0848 39.5016 71.1405 39.0751 71.1093 38.6504C71.005 37.2861 70.569 35.9679 69.8393 34.8104C69.8393 34.8104 69.8393 31.8104 69.6893 30.6004C69.5393 29.3904 70.0693 28.4604 70.3293 27.2504C70.5893 26.0404 69.3293 23.7004 68.5993 22.2504C67.9365 21.0886 66.9682 20.1306 65.7993 19.4804C65.0638 18.954 64.3926 18.3431 63.7993 17.6604C63.1893 17.0504 62.2093 17.5104 61.2593 17.7404C60.5957 17.9114 59.9469 18.1354 59.3193 18.4104C59.1793 17.6004 58.2193 17.4104 57.5593 17.4104C56.866 17.3248 56.1908 17.129 55.5593 16.8304C55.0676 16.4253 54.6306 15.9581 54.2593 15.4404C54.2593 15.4404 53.7393 15.6404 53.4193 15.8104C52.8897 16.0509 52.3266 16.2094 51.7493 16.2804C51.0437 16.4268 50.3804 16.731 49.8093 17.1704C49.1371 17.7083 48.5297 18.3224 47.9993 19.0004C47.3993 19.6704 46.9993 20.1904 46.9993 20.1904C46.6535 20.0617 46.319 19.9045 45.9993 19.7204C45.3693 19.3804 44.4393 19.6704 43.6593 19.7804C43.378 19.832 43.0883 19.8113 42.8172 19.7203C42.5461 19.6294 42.3026 19.4712 42.1093 19.2604C41.6282 18.9052 41.0753 18.6594 40.4893 18.5404C39.7856 18.3443 39.1125 18.0515 38.4893 17.6704C37.6193 17.1704 37.1293 17.9004 36.5493 18.5104C35.9693 19.1204 34.9993 19.8804 33.9993 20.8304C32.9875 21.8611 32.1075 23.0132 31.3793 24.2604C31.1505 24.6119 31.0077 25.0124 30.9626 25.4294C30.9174 25.8463 30.9711 26.2681 31.1193 26.6604C31.2716 27.7675 31.2917 28.8887 31.1793 30.0004C31.0993 31.3304 30.6093 32.8004 30.3693 34.2404C30.2745 34.5954 30.2622 34.9674 30.3333 35.3279C30.4043 35.6884 30.5569 36.0279 30.7793 36.3204C30.1249 36.6086 29.5788 37.0968 29.2194 37.7149C28.8601 38.333 28.706 39.0492 28.7793 39.7604C19.6293 46.5404 19.7793 47.9604 19.7793 47.9604C19.0893 47.9604 17.3793 49.0504 18.2793 50.5304C19.1793 52.0104 21.1893 50.2904 21.1893 50.2904C22.2562 50.1741 23.3352 50.3306 24.3251 50.7451C25.315 51.1596 26.1836 51.8186 26.8493 52.6604C26.7316 53.0073 26.6992 53.3775 26.7549 53.7396C26.8106 54.1016 26.9528 54.4449 27.1693 54.7404C27.9193 55.4904 29.2193 54.9404 29.2193 54.9404C29.0017 55.166 28.8802 55.4671 28.8802 55.7804C28.8802 56.0938 29.0017 56.3949 29.2193 56.6204C28.5565 56.6425 27.9227 56.8974 27.4293 57.3404C28.1442 57.6422 28.778 58.1081 29.2793 58.7004C28.997 58.7099 28.7199 58.7791 28.4663 58.9034C28.2127 59.0277 27.9883 59.2043 27.8078 59.4216C27.6274 59.6388 27.495 59.8919 27.4194 60.164C27.3438 60.4362 27.3268 60.7212 27.3693 61.0004C28.0155 60.5392 28.7409 60.2003 29.5093 60.0004L29.5693 60.4304L30.0893 60.3104C30.0893 60.3104 30.2293 63.0204 30.1693 64.1204C30.1093 65.2204 29.9393 67.4704 29.9693 68.4004C29.9796 69.4948 30.1445 70.5822 30.4593 71.6304C31.0107 72.9506 31.7192 74.1996 32.5693 75.3504C33.1193 75.8404 33.9293 76.4504 34.9393 77.2904C35.8652 78.0588 36.8954 78.6918 37.9993 79.1704C39.1193 79.6904 39.6993 79.4104 40.0793 78.8304C40.4593 78.2504 39.2693 75.3604 38.7193 73.6004C38.323 72.1662 38.1942 70.6713 38.3393 69.1904C38.3993 68.1904 38.2293 67.6604 38.5393 67.3104C38.8493 66.9604 39.4393 64.9404 40.0393 63.6704C40.2187 63.2969 40.47 62.9624 40.7789 62.6861C41.0877 62.4098 41.4481 62.1972 41.8393 62.0604C42.428 63.3021 43.096 64.5046 43.8393 65.6604C44.4918 66.581 44.8413 67.682 44.8393 68.8104C44.874 69.8761 44.8239 70.9428 44.6893 72.0004C44.6162 72.6985 44.6162 73.4023 44.6893 74.1004C44.6893 75.2004 44.1993 80.8904 44.0893 81.8404C43.9793 82.7904 43.8293 84.5004 44.3993 84.6404C44.9693 84.7804 46.2193 83.1704 46.3993 82.7604C46.9746 82.069 47.5088 81.3444 47.9993 80.5904C48.5776 79.2449 49.0425 77.8534 49.3893 76.4304C49.803 74.9609 50.394 73.5472 51.1493 72.2204C52.1311 70.051 52.8851 67.7855 53.3993 65.4604C54.0393 62.8604 54.7593 58.4604 54.7593 58.4604C54.8447 58.158 55.0248 57.8909 55.2732 57.6983C55.5215 57.5057 55.8251 57.3978 56.1393 57.3904C57.2393 57.3904 57.9093 59.7904 57.9693 60.2804C58.0293 60.7704 57.9693 61.4604 57.9693 61.9504C57.9693 62.4404 58.5793 64.1504 58.7493 65.3604C58.8833 66.2026 59.0874 67.0322 59.3593 67.8404C59.3593 67.8404 58.0593 75.6104 57.7693 77.4504C57.4793 79.2904 60.5693 76.0004 61.6393 74.9004C62.7093 73.8004 64.0593 70.9004 65.6393 67.8304C67.2057 64.8978 68.4079 61.7847 69.2193 58.5604C69.5393 56.6304 67.6893 52.4404 67.6893 52.4404C67.9816 51.8407 68.091 51.1682 68.0039 50.5067C67.9168 49.8452 67.6369 49.224 67.1993 48.7204C66.5893 47.9404 67.9793 46.3504 67.9793 46.3504C69.7693 47.0204 72.0793 52.7304 72.5993 53.5404C72.8968 54.3441 72.9455 55.2187 72.7393 56.0504C73.0985 56.2282 73.5067 56.281 73.8993 56.2004C74.5293 56.0504 74.7893 53.8604 75.1093 52.0104C75.3298 50.8221 75.6994 49.6663 76.2093 48.5704M32.1393 50.8004C32.1393 50.8004 31.4993 49.0404 29.3893 49.9304C29.3893 49.9304 26.0393 47.5904 23.5893 47.5704C23.5893 47.5704 29.4793 41.9604 31.3293 41.3604C31.217 41.9824 31.3192 42.6241 31.6193 43.1804C31.888 43.4327 32.0913 43.7467 32.2115 44.0951C32.3317 44.4436 32.3653 44.8161 32.3093 45.1804C32.0793 45.9004 31.2393 47.7204 31.7593 48.2404C32.0112 48.4717 32.2329 48.7337 32.4193 49.0204C32.2273 49.594 32.1326 50.1956 32.1393 50.8004Z" stroke="white" stroke-width="0.1" stroke-miterlimit="10"/>
<path d="M55.2207 42.7197C55.601 42.9542 56.0389 43.0784 56.4857 43.0784C56.9325 43.0784 57.3704 42.9542 57.7507 42.7197" stroke="#231F20" stroke-width="0.47" stroke-linejoin="round"/>
<path d="M54.4199 43.2202C55.0984 43.597 55.8718 43.7684 56.646 43.7134C57.4202 43.6583 58.1616 43.3792 58.7799 42.9102" stroke="#231F20" stroke-width="0.66" stroke-linejoin="round"/>
<path d="M56.3506 40.0004C56.5073 40.5021 56.4943 41.0414 56.3135 41.5349C56.1327 42.0284 55.7943 42.4486 55.3506 42.7304C52.5406 44.3604 48.0306 43.6404 43.3506 41.2804C38.8606 39.0204 38.8106 42.2804 39.0106 43.1504C39.0106 43.1504 36.6106 39.0704 40.8506 38.0804C43.0606 37.5604 47.0206 38.9004 48.1906 39.2404C49.2795 39.5014 50.4215 39.4317 51.4706 39.0404C52.1706 38.7604 52.5706 38.2504 53.4706 38.7104C54.3706 39.1704 55.8006 40.0904 56.3506 40.0004Z" fill="#885A24" stroke="#231F20" stroke-width="0.44" stroke-linejoin="round"/>
<path d="M56.5591 40.0895C56.5591 40.0895 56.1491 41.9895 57.3591 42.5195C59.5491 43.4695 62.9591 43.1395 65.9091 40.7195C68.8591 38.2995 68.9091 40.0195 68.5291 41.2295C68.8298 41.0393 69.0856 40.7861 69.279 40.4875C69.4723 40.1888 69.5986 39.8517 69.6491 39.4995C69.8691 38.4995 69.1591 37.3695 67.1091 37.2695C65.4377 37.2865 63.7949 37.7049 62.3191 38.4895C60.1491 39.4295 60.3991 38.4895 59.0591 38.8895C58.1901 39.2107 57.3532 39.6124 56.5591 40.0895Z" fill="#885A24" stroke="#231F20" stroke-width="0.44" stroke-linejoin="round"/>
<path d="M58.1504 39.19C58.305 38.9493 58.5122 38.7468 58.7565 38.5978C59.0007 38.4489 59.2756 38.3573 59.5604 38.33C60.0536 38.46 60.5697 38.4771 61.0704 38.38C61.2877 38.3461 61.4877 38.2415 61.6396 38.0824C61.7915 37.9233 61.8866 37.7186 61.9104 37.5C61.7984 37.005 61.5194 36.5636 61.1204 36.25C61.3875 36.352 61.6275 36.5143 61.8218 36.7241C62.016 36.934 62.1593 37.1858 62.2404 37.46C62.2554 37.7763 62.1552 38.0874 61.9585 38.3356C61.7618 38.5838 61.4818 38.7523 61.1704 38.81C60.6167 38.9048 60.0479 38.8531 59.5204 38.66C59.0174 38.6792 58.5353 38.8657 58.1504 39.19Z" fill="#231F20"/>
<path d="M58.4305 34.8899C58.4305 34.8899 57.4305 33.8899 54.9805 34.4499C55.9234 33.9513 57.0195 33.8263 58.0505 34.0999L58.4305 34.8899Z" fill="#231F20" stroke="#231F20" stroke-width="0.22" stroke-linecap="round" stroke-linejoin="round"/>
<path d="M55 33.7C55 33.7 56.85 33.02 57.74 33.81L57.24 33.13C56.8475 33.0676 56.4464 33.0859 56.0612 33.1839C55.676 33.2819 55.3149 33.4576 55 33.7Z" fill="#231F20" stroke="#231F20" stroke-width="0.22" stroke-linecap="round" stroke-linejoin="round"/>
<path d="M57.0808 32.8397C56.5145 32.6084 55.8856 32.5801 55.3008 32.7597C55.7125 32.4689 56.2068 32.3181 56.7108 32.3297L57.0808 32.8397Z" fill="#231F20" stroke="#231F20" stroke-width="0.22" stroke-linecap="round" stroke-linejoin="round"/>
<path d="M60.6302 38.7498C60.6302 38.7498 61.4902 38.1198 61.2402 37.2998C61.2402 37.2998 61.0402 38.4798 60.2402 38.5598L60.6302 38.7498Z" fill="#231F20" stroke="#231F20" stroke-width="0.22" stroke-linecap="round" stroke-linejoin="round"/>
<path d="M74.3692 43.6696C74.2292 43.7936 74.1201 43.9486 74.0507 44.1222C73.9812 44.2958 73.9533 44.4833 73.9692 44.6696C73.9692 45.3696 74.6092 46.1996 75.9692 46.4496C77.3292 46.6996 78.7292 46.2896 78.5792 44.9096C78.5792 44.9096 80.7992 45.4996 81.0192 40.8496" stroke="#231F20" stroke-width="0.44" stroke-linecap="round" stroke-linejoin="round"/>
<path d="M77.0994 45.5498C77.0994 45.5498 77.2295 46.2398 76.9395 46.4498" stroke="#231F20" stroke-width="0.44" stroke-linecap="round" stroke-linejoin="round"/>
<path d="M77.6094 45.4404C77.6603 45.5624 77.6865 45.6933 77.6865 45.8254C77.6865 45.9576 77.6603 46.0885 77.6094 46.2104" stroke="#231F20" stroke-width="0.22" stroke-linecap="round" stroke-linejoin="round"/>
<path d="M78 45.25C78.0862 45.4926 78.0862 45.7574 78 46" stroke="#231F20" stroke-width="0.22" stroke-linecap="round" stroke-linejoin="round"/>
<path d="M32.1209 51.4904C32.1209 51.4904 35.4209 51.0004 36.0009 55.1704C36.0009 55.1704 36.8109 55.8804 36.3309 56.3604C35.8509 56.8404 34.2309 59.0804 34.8009 60.6604C34.0132 60.2078 33.1272 59.9539 32.2194 59.9208C31.3116 59.8877 30.4094 60.0764 29.5909 60.4704C29.5909 60.4704 28.9209 57.9904 33.5109 58.6104C33.5109 58.6104 32.3609 57.2704 34.0809 56.7904C34.0809 56.7904 32.0809 57.0304 31.2709 55.8804C31.0473 55.5016 30.9336 55.0681 30.9424 54.6283C30.9512 54.1885 31.0823 53.7599 31.3209 53.3904" stroke="#231F20" stroke-width="0.44" stroke-linecap="round" stroke-linejoin="round"/>
<path d="M29.4506 60.0004C28.6902 60.1488 27.9705 60.4592 27.3406 60.9104C27.3406 60.9104 26.8706 58.4704 30.4506 58.5704" stroke="#231F20" stroke-width="0.44" stroke-linecap="round" stroke-linejoin="round"/>
<path d="M31.3095 58.4197C29.4895 55.4197 27.4395 57.4197 27.4395 57.4197C28.1345 57.6892 28.7674 58.0975 29.2995 58.6197" stroke="#231F20" stroke-width="0.44" stroke-linecap="round" stroke-linejoin="round"/>
<path d="M30.7402 60.1798C30.7402 60.1798 31.5002 61.5698 32.0302 61.5698C32.5602 61.5698 33.1302 60.0898 33.1302 60.0898" stroke="#231F20" stroke-width="0.44" stroke-linecap="round" stroke-linejoin="round"/>
<path d="M29.2702 54.9998C29.2702 54.9998 28.5502 56.0998 29.2102 56.7398C29.7226 56.8329 30.2059 57.0452 30.6211 57.3597C31.0363 57.6741 31.3717 58.0818 31.6002 58.5498H32.2202C32.1197 58.3973 32.0628 58.2201 32.0559 58.0376C32.0489 57.855 32.0921 57.6741 32.1807 57.5143C32.2694 57.3546 32.4 57.2222 32.5586 57.1315C32.7172 57.0408 32.8976 56.9952 33.0802 56.9998C33.0802 56.9998 29.9102 56.8498 30.8702 53.7998C30.3824 54.2571 29.8458 54.6595 29.2702 54.9998Z" fill="#231F20" stroke="#231F20" stroke-width="0.44" stroke-linecap="round" stroke-linejoin="round"/>
<path d="M51 46.3504C51 46.3504 61.08 48.1304 62.8 44.4404C62.8 44.4404 63.23 43.0904 62.43 43.2704C61.63 43.4504 62.43 44.2704 61.7 44.6304C59.59 45.8504 57.62 47.0804 51 46.3504Z" fill="#231F20" stroke="#231F20" stroke-width="0.44" stroke-linecap="round" stroke-linejoin="round"/>
<path d="M48.5398 52.8603C49.0533 53.2103 49.6364 53.4452 50.2491 53.5487C50.8619 53.6523 51.4898 53.6221 52.0898 53.4603C53.8484 52.77 55.7324 52.4566 57.6198 52.5403C59.6198 52.7703 60.4798 52.7203 60.8898 52.2103C61.2702 51.6622 61.6878 51.141 62.1398 50.6503C62.4598 50.4203 62.5998 50.0503 62.6498 49.3603C62.6998 48.6703 62.9698 48.4403 62.6498 48.1103C62.3298 47.7803 62.6498 47.1103 63.0198 47.7003C63.3898 48.2903 64.2198 50.0003 63.7098 50.7003C63.1998 51.4003 62.7898 51.8103 62.5598 52.2203C62.3506 52.5929 62.041 52.8992 61.6661 53.1043C61.2913 53.3094 60.8664 53.405 60.4398 53.3803C59.4731 53.2677 58.4965 53.2677 57.5298 53.3803C56.9798 53.5703 57.3898 53.8403 55.5298 53.8403C53.6698 53.8403 54.6498 54.2603 53.3198 54.5303C51.9898 54.8003 52.0698 55.2303 50.6898 54.7203C49.3098 54.2103 48.6898 53.5703 48.2498 53.6603C47.8098 53.7503 46.5998 53.1403 46.9998 52.4903C47.3998 51.8403 47.4298 52.0003 48.5398 52.8603Z" fill="#231F20" stroke="#231F20" stroke-width="0.44" stroke-linecap="round" stroke-linejoin="round"/>
<path d="M50.9994 54.8397C50.9994 54.8397 50.3094 55.1197 50.6794 55.4397C51.0494 55.7597 50.6794 55.7197 51.5994 55.5797C52.5194 55.4397 53.3994 55.9497 53.5294 55.6697C53.6594 55.3897 52.1394 54.6597 50.9994 54.8397Z" fill="#231F20" stroke="#231F20" stroke-width="0.44" stroke-linecap="round" stroke-linejoin="round"/>
<path d="M52.1399 56C52.3814 56.0368 52.6256 56.0535 52.8699 56.05C53.3299 56.05 53.7499 56.28 53.4299 56.46C53.1099 56.64 52.7299 56.55 52.8299 56.74C52.9299 56.93 52.9599 57.11 52.3199 57.11C51.6799 57.11 51.3199 56.88 51.6699 56.74C52.0199 56.6 51.3999 56 52.1399 56Z" fill="#231F20"/>
<path d="M46.5293 32.2802C47.0315 32.0083 47.5611 31.7904 48.1093 31.6302C48.3885 31.5388 48.6769 31.4785 48.9693 31.4502C49.2623 31.4296 49.5563 31.4296 49.8493 31.4502C50.3793 31.5302 51.0193 31.6602 51.3393 31.4502C51.3393 31.4502 51.4093 31.3502 51.3393 31.1902C51.3164 31.0983 51.3164 31.0022 51.3393 30.9102C51.3654 30.8659 51.4001 30.8271 51.4413 30.7962C51.4825 30.7653 51.5294 30.7429 51.5793 30.7302C51.8662 30.6707 52.1624 30.6707 52.4493 30.7302C52.1756 30.7707 51.9093 30.8516 51.6593 30.9702C51.5393 31.0502 51.5593 31.0402 51.5893 31.1802C51.6236 31.2689 51.6352 31.3648 51.6229 31.4591C51.6107 31.5534 51.5751 31.6432 51.5193 31.7202C51.3935 31.8314 51.2456 31.9148 51.0853 31.9648C50.925 32.0147 50.756 32.0302 50.5893 32.0102C50.2893 32.0102 49.9993 32.0102 49.7293 31.9402C49.462 31.8908 49.1911 31.864 48.9193 31.8602C48.6593 31.8602 48.3893 31.9302 48.1193 31.9602C47.6393 32.0502 47.0893 32.1802 46.5293 32.2802Z" fill="#231F20"/>
<path d="M58.5898 30.8003C58.6622 31.0049 58.799 31.1804 58.9798 31.3003C59.0621 31.3431 59.155 31.3611 59.2472 31.3522C59.3395 31.3434 59.4273 31.308 59.4998 31.2503C59.9254 31.0634 60.3673 30.9161 60.8198 30.8103C61.7284 30.5792 62.6849 30.6209 63.5698 30.9303C63.1187 30.9182 62.6673 30.9416 62.2198 31.0003C61.7789 31.0552 61.3416 31.1353 60.9098 31.2403C60.4698 31.3203 60.0398 31.4403 59.6198 31.5603C59.496 31.6191 59.3581 31.6419 59.2219 31.626C59.0857 31.61 58.9568 31.5561 58.8498 31.4703C58.6831 31.2869 58.5905 31.0481 58.5898 30.8003Z" fill="#231F20"/>
<path d="M38.14 31.8604C38.14 31.8604 38.81 32.7804 41.14 32.2404C40.0108 32.55 38.9469 33.0616 38 33.7504" stroke="#231F20" stroke-width="0.22" stroke-linecap="round" stroke-linejoin="round"/>
<path d="M68.8792 30.4199C68.6858 30.592 68.459 30.7226 68.213 30.8034C67.967 30.8843 67.7071 30.9137 67.4492 30.8899C67.4492 30.8899 68.3792 31.3099 68.4492 31.8899" stroke="#231F20" stroke-width="0.22" stroke-linecap="round" stroke-linejoin="round"/>
<path d="M43.8496 28L44.2496 28.12L44.3396 27.91H44.7396L44.8996 27.85H45.1796L45.2696 27.69L45.5096 27.81L45.6396 27.63L45.7596 27.51L45.6996 27.39L45.7596 27.23L45.9096 27.45L46.0296 27.51L46.3096 27.57H46.4696V27.33H46.6196L46.7996 27.17L46.6796 27C46.7511 27.0193 46.8143 27.0615 46.8596 27.12C46.9053 27.1834 46.9392 27.2546 46.9596 27.33C47.0466 27.3631 47.1426 27.3631 47.2296 27.33L47.1696 27.18V26.9C47.2814 26.926 47.3978 26.926 47.5096 26.9L47.7896 27.03L47.9396 27.24L48.1196 27.3L48.3096 27.4C48.4896 27.27 48.3096 27.3 48.4896 27.27H48.6496V26.93L48.9596 27.09V27.3L49.1396 27.21L49.5696 27.12V26.96L49.9096 27.27L50.1496 27.12L50.2396 27.33H50.4296L50.4896 27.49L50.7696 27.7H50.9196L51.0396 27.89H51.2296L51.4396 27.73L51.5396 28.04H51.8696L52.0896 28.1L52.2096 27.98H52.4596L52.6396 28.04V28.19L52.9496 28.01V27.7L52.7996 27.52V27.33V27.12V26.9C52.7996 26.9 52.8896 26.65 52.7996 26.69C52.7096 26.73 52.6396 26.44 52.5796 26.53L52.5196 26.63V26.78L52.3396 26.72L52.2096 26.53V26.41L52.0296 26.29L51.8096 26.56H51.6296L51.5396 26.41L51.4396 26.29H51.3196L51.1096 26.38H50.9196L50.7696 26.23L50.6396 26H50.4896L50.3396 26.19H50.1496L49.9996 26.12L49.7496 26L49.5396 25.91L49.3496 25.69L49.2296 25.6L49.1096 25.54H48.8596L48.7396 25.42L48.5896 25.29H48.3696H48.1896H47.9396C47.8686 25.264 47.7906 25.264 47.7196 25.29L47.5396 25.42L47.1996 25.54H46.9996H46.8396L46.7196 25.69H46.5396H46.2896L46.1696 25.85H45.8896L45.7996 26.1H45.4896L45.3096 26.38L45.2496 26.56V26.72V26.84L44.9996 26.8L44.7796 26.99H44.5096L44.4496 27.14L44.2896 27.2L44.0496 27.29V27.48L43.8896 27.66L43.8496 28Z" fill="#231F20" stroke="#231F20" stroke-width="0.22" stroke-linejoin="round"/>
<path d="M58.3906 27.8597H58.7706L59.0406 27.7497L59.2606 27.5797L59.5906 27.4197V27.6897H59.8606L60.0706 27.4797L60.3506 27.6897L60.6706 27.4797H61.0006L61.3806 27.0997L61.5906 26.9397L61.7606 26.7197L61.9706 26.5597V26.8797L62.4606 26.7697L62.8406 26.9397L63.0006 26.7697L63.2206 26.5597L63.4906 26.4997L63.4306 26.8297L63.6706 26.5497L63.7606 26.4497L64.1906 26.3997L64.1406 26.6697L64.5206 26.3397L64.4606 26.7197L64.6906 26.5897L64.9506 26.4497L65.1606 26.9397L65.3306 26.8797L65.4906 26.8297L65.8106 27.0497C65.8106 27.2597 66.2506 27.1497 66.2506 27.1497L66.5706 27.3197L66.7906 27.6897L67.1106 27.8597L67.3806 27.6397L67.3306 27.3697L66.9506 27.1497L66.6106 26.9997L66.1806 26.6797V26.4597L66.0006 26.2897L65.7306 25.9097L65.1906 25.7397L64.8706 25.4697H64.2706L64.3306 25.1997H63.7306L63.2506 25.3597L62.7106 25.5797L62.2706 25.7397L61.8406 25.8497L62.3306 25.1997L62.4406 24.9297L61.9006 25.3597L61.6806 25.4197L61.3006 25.4697L61.1406 25.6897L60.7606 25.8997L60.4006 25.9997L60.0706 26.0997L59.7506 26.0497V26.3197L59.5306 26.5397L59.1506 26.9197L58.7706 27.1297L58.3906 27.8597Z" fill="#231F20" stroke="#231F20" stroke-width="0.22" stroke-linejoin="round"/>
<path d="M41.7496 32.1095C41.7496 32.1095 42.1196 32.1095 44.0096 31.5995C46.0107 31.1329 48.0482 30.8385 50.0996 30.7195C50.5596 30.8195 50.9696 30.6295 50.4696 30.2195C49.8058 29.7731 49.0604 29.462 48.2762 29.3042C47.492 29.1463 46.6844 29.1447 45.8996 29.2995C44.1496 29.8495 43.3196 31.2995 42.8096 31.4595C42.2996 31.6195 41.3796 31.6895 41.7496 32.1095Z" stroke="#231F20" stroke-width="0.22" stroke-linecap="round" stroke-linejoin="round"/>
<path d="M45.1602 31.2797C45.1602 31.2797 44.5203 30.0297 45.5803 29.4297C46.6403 28.8297 49.5803 29.5297 50.4703 30.2197C51.3603 30.9097 50.0502 30.7697 49.9102 30.7197C49.7702 30.6697 45.1602 31.2797 45.1602 31.2797Z" fill="#231F20" stroke="#231F20" stroke-width="0.22" stroke-linecap="round" stroke-linejoin="round"/>
<path d="M59.6907 30.4898C59.6907 30.4898 64.2007 29.3898 66.4607 30.6298C66.4607 30.6298 67.3808 30.9498 66.6508 30.1298C66.2507 29.5295 65.6825 29.0604 65.0174 28.7812C64.3522 28.502 63.6194 28.425 62.9107 28.5598C61.7717 28.7208 60.7009 29.199 59.8207 29.9398C59.4607 30.0798 59.1307 30.4498 59.6907 30.4898Z" stroke="#231F20" stroke-width="0.22" stroke-linecap="round" stroke-linejoin="round"/>
<path d="M61.3396 30.1699C61.2406 30.1042 61.1594 30.0151 61.1032 29.9104C61.047 29.8057 61.0176 29.6887 61.0176 29.5699C61.0176 29.4511 61.047 29.3341 61.1032 29.2294C61.1594 29.1247 61.2406 29.0356 61.3396 28.9699C62.1196 28.3699 64.6596 28.2799 65.6296 29.1999C66.5996 30.1199 67.6296 30.9999 66.1796 30.4899C64.5867 30.1758 62.96 30.0682 61.3396 30.1699Z" fill="#231F20" stroke="#231F20" stroke-width="0.22" stroke-linecap="round" stroke-linejoin="round"/>
<path d="M45.6596 30.4103C45.6596 30.7403 45.5396 31.0103 45.3796 31.0103C45.2196 31.0103 45.0996 30.7403 45.0996 30.4103C45.0996 30.0803 45.2196 29.8203 45.3796 29.8203C45.5396 29.8203 45.6596 30.0903 45.6596 30.4103Z" fill="white" stroke="#231F20" stroke-width="0.22" stroke-miterlimit="10"/>
<path d="M49.9298 30.2705C49.9359 30.3067 49.9307 30.344 49.9151 30.3773C49.8994 30.4105 49.8739 30.4382 49.842 30.4565C49.8101 30.4748 49.7734 30.483 49.7367 30.4798C49.7001 30.4766 49.6653 30.4623 49.637 30.4387C49.6088 30.4152 49.5884 30.3836 49.5787 30.3481C49.569 30.3126 49.5703 30.275 49.5826 30.2404C49.5949 30.2057 49.6175 30.1756 49.6474 30.1542C49.6772 30.1328 49.713 30.121 49.7498 30.1205C49.7933 30.1176 49.8362 30.1316 49.8697 30.1595C49.9032 30.1874 49.9247 30.2272 49.9298 30.2705Z" fill="white" stroke="#231F20" stroke-width="0.22" stroke-miterlimit="10"/>
<path d="M66.1209 30.0003C66.1209 30.0903 65.9509 30.1203 65.8009 30.0703C65.6509 30.0203 65.5409 29.9303 65.5609 29.8503C65.5809 29.7703 65.7309 29.7403 65.8809 29.7803C66.0309 29.8203 66.1409 30.0003 66.1209 30.0003Z" fill="white" stroke="#231F20" stroke-width="0.22" stroke-miterlimit="10"/>
<path d="M61.6697 29.6305C61.6697 29.8405 61.5597 30.0205 61.4297 30.0205C61.2997 30.0205 61.1797 29.8405 61.1797 29.6305C61.1797 29.4205 61.2897 29.2305 61.4297 29.2305C61.5697 29.2305 61.6697 29.4005 61.6697 29.6305Z" fill="white" stroke="#231F20" stroke-width="0.22" stroke-miterlimit="10"/>
<path d="M31.6903 49.9302C31.3586 49.6333 30.9252 49.4757 30.4803 49.4902C29.9652 49.5028 29.4608 49.6401 29.0103 49.8902C29.2612 50.0624 29.5017 50.2494 29.7303 50.4502C29.813 50.4753 29.8884 50.5199 29.9503 50.5802C30.3703 50.9702 30.1803 51.8802 29.5303 52.5802C29.1681 53.0105 28.6505 53.2801 28.0903 53.3302C27.9319 53.3447 27.7734 53.3024 27.6433 53.2108C27.5132 53.1192 27.42 52.9842 27.3803 52.8302L26.7203 52.5002C26.653 52.686 26.5995 52.8765 26.5603 53.0702C26.4761 53.3894 26.4722 53.7244 26.549 54.0455C26.6258 54.3665 26.7808 54.6636 27.0003 54.9102C27.332 55.2071 27.7654 55.3646 28.2103 55.3502C28.7418 55.3221 29.2623 55.1882 29.7414 54.9564C30.2205 54.7246 30.6485 54.3995 31.0003 54.0002C32.2903 52.5802 32.5903 50.7802 31.6903 49.9302ZM30.6903 53.7002C30.0762 54.4333 29.2014 54.8994 28.2503 55.0002C27.9016 55.0139 27.5611 54.892 27.3003 54.6602C27.1128 54.4602 26.9803 54.2151 26.9154 53.9488C26.8506 53.6825 26.8557 53.4039 26.9303 53.1402C26.9303 53.0402 26.9303 52.9302 27.0003 52.8302C27.0358 53.0578 27.1489 53.2662 27.3203 53.4202C27.5286 53.6147 27.8054 53.7189 28.0903 53.7102C28.4183 53.6884 28.7387 53.601 29.0324 53.4533C29.3261 53.3056 29.5872 53.1005 29.8003 52.8502C30.6103 51.9802 30.8003 50.8502 30.2103 50.3302C30.0333 50.1771 29.8132 50.0828 29.5803 50.0602C29.8668 49.9458 30.1718 49.8848 30.4803 49.8802C30.8454 49.8575 31.2047 49.9797 31.4803 50.2202C32.1903 50.9102 31.8803 52.4802 30.7403 53.7002H30.6903Z" fill="#231F20"/>
<path d="M30.2809 51.0598C28.5121 49.0985 26.0858 47.8533 23.4609 47.5598C23.4609 47.5598 28.7609 42.1698 33.5609 40.0498" stroke="#231F20" stroke-width="0.66" stroke-linecap="round" stroke-linejoin="round"/>
<path d="M27.6591 53.3196C27.6591 53.3196 25.2091 49.8596 21.2991 50.2296C21.2991 50.2296 19.1591 52.2296 18.2991 50.5996C17.2991 48.5996 19.8191 48.0196 19.8191 48.0196C19.8191 48.0196 19.5991 46.3697 28.8991 39.7197C28.8991 39.7197 27.8391 37.7896 32.3091 35.3896" stroke="#231F20" stroke-width="0.66" stroke-linecap="round" stroke-linejoin="round"/>
<path d="M74.4405 45.8604C74.3568 46.266 74.2397 46.664 74.0905 47.0504C73.8905 47.5104 72.5805 50.2204 72.9705 52.0504" stroke="#231F20" stroke-width="0.66" stroke-linecap="round" stroke-linejoin="round"/>
<path d="M77.1007 46.3999C75.6322 49.193 74.7444 52.2545 74.4907 55.3999C74.4907 55.3999 74.2907 56.7199 72.7807 56.1199C72.9233 55.2867 72.8755 54.432 72.6407 53.6199C72.2507 52.6199 69.3507 46.4399 67.9707 46.3799" stroke="#231F20" stroke-width="0.66" stroke-linejoin="round"/>
<path d="M70.4004 41.1299C70.4004 41.1299 70.9304 42.0499 70.7304 42.5099C70.5702 42.9633 70.5114 43.4463 70.5581 43.9248C70.6047 44.4034 70.7557 44.866 71.0004 45.2799C71.6504 46.4599 73.2204 49.1499 73.2204 49.1499" stroke="#231F20" stroke-width="0.66" stroke-linecap="round" stroke-linejoin="round"/>
<path d="M52.0907 23.9105C51.8606 23.2244 51.4893 22.5942 51.0007 22.0605C50.4507 21.7005 49.9007 21.4505 49.4107 21.0605C48.9207 20.6705 48.4107 20.8105 47.6207 20.6905C46.8767 20.616 46.1384 20.4924 45.4107 20.3205C44.4907 20.0805 42.4107 19.4005 41.6607 20.4505C40.9107 21.5005 37.5807 24.8305 37.2807 26.0005C37.1525 26.5892 36.9224 27.151 36.6007 27.6605C36.6007 27.6605 33.8307 28.8305 33.4707 30.8605C33.4707 30.8605 35.6207 28.0905 36.8507 28.7105C37.1585 27.7575 37.5431 26.8312 38.0007 25.9405C38.4307 25.3205 40.2207 23.5405 41.0007 22.5605C41.7807 21.5805 42.1307 21.0005 43.1107 21.0005C44.0907 21.0005 46.3707 21.3705 47.3607 21.4905C48.2269 21.4681 49.08 21.7049 49.8107 22.1705C50.1829 22.5478 50.5954 22.8831 51.0407 23.1705C51.4107 23.3605 51.6607 24.1705 51.9007 24.2205C52.1407 24.2705 52.0907 23.9105 52.0907 23.9105Z" fill="#231F20" stroke="#231F20" stroke-width="0.22" stroke-linecap="round" stroke-linejoin="round"/>
<path d="M51.9997 23.6904C51.9997 23.6904 52.1197 24.0904 52.4597 24.1204C52.7997 24.1504 53.3797 24.1204 53.4597 24.1204C53.6937 24.1822 53.9214 24.2659 54.1397 24.3704H54.6597L55.1797 25.0504L55.3097 25.6604C55.1649 25.4488 54.9858 25.2629 54.7797 25.1104C54.565 24.9622 54.3289 24.8476 54.0797 24.7704C53.8897 24.7104 53.6197 24.6504 53.5597 24.5504C53.4997 24.4504 53.4597 24.3704 53.1897 24.3704C52.9197 24.3704 52.8197 24.3704 52.5997 24.3704C52.3797 24.3704 51.9297 24.4304 51.6797 24.0904L51.9997 23.6904Z" fill="#231F20" stroke="#231F20" stroke-width="0.22" stroke-linecap="round" stroke-linejoin="round"/>
<path d="M55.2502 25.08L55.1302 24.23L55.6802 24.65C55.6802 24.65 55.6802 23.59 56.0102 23.65C56.3402 23.71 56.8802 24.02 57.0102 23.97C57.2863 23.9446 57.5641 23.9446 57.8402 23.97L58.2102 24.16C58.2102 24.16 58.6302 24.11 58.6702 23.92C58.708 23.7683 58.738 23.6148 58.7602 23.46L58.6702 23.19L59.4502 24.19L59.6802 24.69C59.6802 24.69 60.0502 23.91 60.3302 23.95C60.6102 23.99 61.2502 24.05 61.2502 24.05L61.8102 23.95L62.1302 23.49L62.4002 23.26L62.6402 23.17L63.1002 23.36C63.3055 23.1962 63.4902 23.0082 63.6502 22.8C63.7853 22.5076 63.8795 22.1981 63.9302 21.88C63.8434 21.64 63.7798 21.3922 63.7402 21.14C63.7402 20.77 63.6002 20.64 63.5602 20.41C63.5202 20.18 63.4202 19.9 63.3702 19.71C63.3202 19.52 63.2302 19.25 63.2302 19.25C63.5182 19.5507 63.7668 19.8867 63.9702 20.25C64.0602 20.53 64.5302 21.36 64.5702 21.54C64.6102 21.72 65.3102 22.37 65.4502 22.65C65.6335 22.9224 65.8339 23.1829 66.0502 23.43C66.2302 23.71 66.6502 24.08 66.6002 23.89C66.5502 23.7 66.5102 23.06 66.4602 22.89C66.4102 22.72 66.3202 22.38 66.2802 22.24C66.2436 22.0287 66.2269 21.8144 66.2302 21.6C66.2302 21.6 66.4202 21.37 66.7402 21.6C67.0602 21.83 67.5702 22.15 67.5702 22.15L68.1702 22.29H68.5802L67.7102 21.37C67.4156 21.4473 67.103 21.4154 66.8302 21.28C66.4602 21.05 66.6002 21 66.2802 20.91C65.9602 20.82 65.8602 21 65.8602 21L65.6802 21.55L65.9502 22.38L66.0902 22.98C65.9032 22.6005 65.6715 22.2446 65.4002 21.92C65.0802 21.6 64.9902 21.6 64.9402 21.37C64.8879 21.1455 64.8107 20.9275 64.7102 20.72C64.6202 20.54 64.4302 20.21 64.4302 20.21H64.9902L64.6202 19.61C64.4961 19.5347 64.3847 19.4402 64.2902 19.33C64.1359 19.1637 63.9687 19.0099 63.7902 18.87C63.7902 18.87 63.6502 18.87 63.4602 18.64C63.338 18.4944 63.1792 18.3839 63.0002 18.32L62.6902 18C62.7339 18.5111 62.8107 19.0188 62.9202 19.52C63.0602 20.03 63.2402 20.81 63.2402 20.81L63.3802 21.46L63.4702 21.78L63.3802 22.15L63.2002 22.38L63.1502 22.61L62.9202 22.84L62.3702 22.61L62.1402 22.84L62.0502 23.12L61.6802 23.44L61.1202 23.63L60.8002 23.49L60.5702 23.4L60.2502 23.3L59.9302 23.58L59.7402 23.76C59.5912 23.6696 59.4647 23.5465 59.3702 23.4C59.2355 23.1549 59.0817 22.9209 58.9102 22.7C58.7702 22.57 58.5402 22.52 58.4502 22.38C58.3671 22.2648 58.2734 22.1576 58.1702 22.06L57.8002 21.97L58.0802 22.66L58.2602 23.16L58.3102 23.53C58.1744 23.5086 58.036 23.5086 57.9002 23.53C57.7602 23.58 57.3402 23.67 57.1602 23.53C56.9802 23.39 56.8402 23.53 56.7002 23.44C56.5843 23.3757 56.4597 23.3285 56.3302 23.3H55.8702H55.5902L55.3202 23.71L54.9002 23.76H54.5802L54.1602 23.35C54.1586 23.4987 54.208 23.6434 54.3002 23.76C54.4181 23.8911 54.5251 24.0315 54.6202 24.18L54.7302 24.44L55.2502 25.08Z" fill="#231F20" stroke="#231F20" stroke-width="0.22" stroke-miterlimit="10"/>
<path d="M59.2503 18.1304C59.1194 17.9073 58.9383 17.7179 58.7213 17.5773C58.5042 17.4367 58.2574 17.3487 58.0003 17.3204C57.1586 17.3171 56.3319 17.0967 55.6003 16.6804C55.1258 16.2729 54.6813 15.8318 54.2703 15.3604C53.5252 15.7424 52.736 16.0312 51.9203 16.2204C50.9534 16.4647 50.0521 16.9188 49.2803 17.5504C48.7417 17.9874 48.2611 18.4915 47.8503 19.0504C47.4503 19.5104 46.9903 20.1704 46.9903 20.1704C46.5754 19.9422 46.1442 19.745 45.7003 19.5804C44.9603 19.2904 43.0903 19.9104 42.3403 19.3904C41.643 18.883 40.8394 18.541 39.9903 18.3904C38.6703 18.0504 38.1503 17.3004 37.6403 17.5904C36.48 18.511 35.3872 19.5135 34.3703 20.5904C33.2803 21.6804 30.8703 24.3204 31.0903 25.9804C31.3437 27.5588 31.3639 29.166 31.1503 30.7504C30.9203 32.0704 29.9503 35.3404 30.6403 36.2004" stroke="#231F20" stroke-width="0.88" stroke-linejoin="round"/>
<path d="M37.3399 26.3602C37.3399 26.3602 35.5899 25.7502 33.4199 27.5502C33.8921 26.869 34.541 26.3294 35.2968 25.9893C36.0527 25.6493 36.887 25.5217 37.7099 25.6202L37.3399 26.3602Z" fill="#231F20" stroke="#231F20" stroke-width="0.22" stroke-linejoin="round"/>
<path d="M31.25 41.4297C31.306 42.0105 31.4759 42.5746 31.75 43.0897C31.9906 43.4468 32.1578 43.8482 32.2419 44.2705C32.326 44.6928 32.3254 45.1276 32.24 45.5497C31.99 46.4097 31.38 47.7597 31.93 48.3697L32.48 48.9897C32.48 48.9897 32.05 50.9897 32.35 51.4997" stroke="#231F20" stroke-width="0.88" stroke-linejoin="round"/>
<path d="M68.4793 43.1299C68.4793 43.1299 68.6793 43.3599 68.4793 44.1299C68.3577 45.0927 68.0772 46.0288 67.6493 46.8999C67.0993 47.7299 66.9993 48.2799 67.3693 48.8999C67.7683 49.3847 68.009 49.9801 68.0591 50.6059C68.1092 51.2317 67.9662 51.8579 67.6493 52.3999C67.6493 52.3999 69.9493 56.5499 69.0293 60.0499C68.1093 63.5499 65.4393 68.2599 64.2393 70.6499C63.436 72.5638 62.2442 74.2903 60.7393 75.7199C59.0993 77.2899 57.5293 79.3199 57.9993 76.9999C58.4693 74.6799 58.8293 70.9099 59.1093 69.3399L59.3793 67.7799C59.0037 66.6049 58.7261 65.4008 58.5493 64.1799C58.1793 61.8799 57.9093 62.1799 57.9093 60.7699C57.9471 59.7521 57.6561 58.7493 57.0793 57.9099C56.7993 57.7299 56.2493 57.0799 55.6893 57.4499C55.1293 57.8199 54.7693 58.0899 54.7693 58.3699C54.6232 59.9897 54.3457 61.595 53.9393 63.1699C53.4238 65.5146 52.7761 67.8283 51.9993 70.0999C51.1693 72.0999 49.8793 74.0999 49.4193 76.1899C49.0826 77.7111 48.5866 79.1926 47.9393 80.6099C47.2993 82.2699 47.0193 81.7199 46.2793 83.0099C45.5393 84.2999 43.6993 85.9999 44.0693 82.9199C44.4393 79.8399 44.7093 75.8199 44.7093 74.4299C44.7093 73.0399 44.4393 72.6799 44.7093 71.7599C44.8837 70.7696 44.9174 69.7596 44.8093 68.7599C44.9027 68.0802 44.8058 67.3878 44.5293 66.7599C44.2493 66.2099 43.3293 65.0999 42.5293 63.5299C42.0409 62.5676 41.6393 61.5636 41.3293 60.5299C40.7793 59.1499 40.7793 59.9799 39.8593 58.5999C39.2448 57.741 38.8064 56.769 38.5693 55.7399C38.1093 54.3599 37.5693 54.4499 37.2793 53.7999C36.9893 53.1499 35.9793 52.1399 36.5393 50.7999" stroke="#231F20" stroke-width="0.88" stroke-linecap="round" stroke-linejoin="round"/>
<path d="M30.1509 60.46C30.2469 62.0352 30.2469 63.6148 30.1509 65.19C29.9609 66.76 29.8709 69.92 30.5209 71.5C31.1709 73.08 31.9109 75.12 33.0209 75.86C33.94 76.4555 34.8095 77.1243 35.6209 77.86C36.4625 78.462 37.4085 78.9028 38.4109 79.16C39.1509 79.44 40.7309 79.81 39.8009 77.16C39.1813 75.6645 38.7155 74.1098 38.4109 72.52C38.316 71.6266 38.2826 70.7279 38.3109 69.83C38.3109 68.34 38.1309 67.83 38.5009 67.23C38.8709 66.63 38.9609 65.93 39.4309 65C39.9009 64.07 40.2609 62.78 41.4309 62.12" stroke="#231F20" stroke-width="0.88" stroke-linecap="round" stroke-linejoin="round"/>
<path d="M43.6091 60.8303C43.7044 61.4241 43.8346 62.0118 43.9991 62.5903C44.1491 62.9409 44.3334 63.2758 44.5491 63.5903C44.724 63.7733 44.8511 63.9965 44.9191 64.2403C44.9191 64.5103 45.0991 64.4703 45.0591 64.9303C45.0293 65.3598 45.0293 65.7908 45.0591 66.2203C45.0325 66.4027 45.0325 66.5879 45.0591 66.7703C45.137 67.0271 45.184 67.2923 45.1991 67.5603C45.1139 68.3768 45.168 69.2019 45.3591 70.0003C45.5891 70.3303 45.8191 70.3703 45.8191 70.6903C45.8191 71.0103 45.8191 71.4303 45.8191 71.6903C45.801 71.8946 45.8319 72.1003 45.9091 72.2903C45.9991 72.4803 45.9091 72.7103 46.0891 72.9403C46.2004 73.0691 46.267 73.2305 46.2791 73.4003V74.0003C46.3084 74.1219 46.3084 74.2487 46.2791 74.3703C46.2544 74.5423 46.2073 74.7104 46.1391 74.8703C46.0216 75.116 45.9732 75.3891 45.9991 75.6603V76.3903C45.9991 76.7203 45.8191 76.2103 45.9991 76.7203C46.1791 77.2303 46.2391 77.3203 46.3291 77.5903C46.4191 77.8603 46.4691 77.8703 46.5091 78.0503C46.582 78.21 46.5996 78.3895 46.5591 78.5603C46.5098 78.8042 46.4797 79.0516 46.4691 79.3003C46.4581 79.4909 46.4106 79.6776 46.3291 79.8503C46.3291 79.9903 46.1891 79.1103 46.0991 78.6503C46.0091 78.1903 45.6791 77.8703 45.6791 77.7303C45.6598 77.5454 45.6298 77.3617 45.5891 77.1803C45.5546 76.9956 45.5379 76.8081 45.5391 76.6203C45.519 76.4375 45.519 76.2531 45.5391 76.0703C45.581 75.9037 45.5979 75.7318 45.5891 75.5603C45.5622 75.4249 45.5622 75.2856 45.5891 75.1503C45.6088 75.011 45.6088 74.8696 45.5891 74.7303C45.5891 74.6003 45.5891 74.3203 45.5891 74.3203L45.4891 74.0403C45.4721 73.9511 45.4721 73.8595 45.4891 73.7703C45.5092 73.6143 45.5092 73.4563 45.4891 73.3003C45.4639 73.1648 45.4639 73.0258 45.4891 72.8903C45.4891 72.7103 45.5791 73.0303 45.4891 72.7103C45.3991 72.3903 45.3991 72.3803 45.4891 72.2003C45.5791 72.0203 45.5791 71.9703 45.4891 71.8303C45.3991 71.6903 45.5791 71.9703 45.4891 71.6903L45.3491 71.4203C45.3491 71.4203 45.4891 71.4203 45.3491 71.2303C45.2091 71.0403 45.0791 70.6803 45.0791 70.6803C45.0791 70.6803 44.7991 67.2703 44.7491 67.0803C44.6991 66.8903 44.6191 66.3003 44.6191 66.3003C44.609 66.1471 44.609 65.9935 44.6191 65.8403C44.6691 65.5603 44.8091 65.4203 44.6191 65.0103C44.5442 64.7794 44.4364 64.5605 44.2991 64.3603C44.0542 63.921 43.8371 63.4668 43.6491 63.0003C43.5524 62.6719 43.4756 62.3379 43.4191 62.0003C43.3791 61.8003 43.5191 59.8203 43.6091 60.8303Z" fill="#231F20" stroke="#231F20" stroke-width="0.22" stroke-linecap="round" stroke-linejoin="round"/>
<path d="M21.0996 47.9401C21.3884 47.3029 21.7995 46.7287 22.3096 46.2501C22.7996 45.7501 23.3096 45.2501 23.8196 44.8001C24.8196 43.8801 25.9396 43.0001 27.0496 42.1601C28.1596 41.3201 29.2696 40.4801 30.4096 39.6801C30.7 39.5045 30.9744 39.3038 31.2296 39.0801C31.4766 38.854 31.63 38.5436 31.6596 38.2101C31.673 37.5244 31.4386 36.8569 30.9996 36.3301C31.2521 36.5801 31.4527 36.8776 31.59 37.2053C31.7273 37.5331 31.7985 37.8847 31.7996 38.2401C31.7858 38.6173 31.6284 38.9751 31.3596 39.2401C31.1059 39.4834 30.8315 39.7042 30.5396 39.9001C29.3996 40.7101 28.2696 41.5101 27.1496 42.3401C26.0296 43.1701 24.9396 44.0001 23.8896 44.8901C23.3563 45.3434 22.8463 45.8134 22.3596 46.3001C21.8463 46.7634 21.4256 47.3199 21.1196 47.9401H21.0996Z" fill="#231F20"/>
<path d="M21.8301 49.1003C23.06 49.0583 24.2826 49.3048 25.4001 49.8203C25.9632 50.0699 26.483 50.4075 26.9401 50.8203C27.377 51.2595 27.7355 51.7702 28.0001 52.3303C27.6496 51.8416 27.2436 51.3953 26.7901 51.0003C26.3479 50.6016 25.8533 50.2652 25.3201 50.0003C24.2342 49.4603 23.0425 49.1667 21.8301 49.1403V49.1003Z" fill="#231F20"/>
<path d="M34.1094 40.2002C34.6087 40.6594 34.9573 41.2591 35.1094 41.9202C35.0923 42.5642 35.1836 43.2065 35.3794 43.8202C35.4517 44.1144 35.5845 44.3902 35.7694 44.6302C35.9677 44.9001 36.1513 45.1805 36.3194 45.4702C36.5096 45.7801 36.6513 46.1174 36.7394 46.4702C36.7744 46.5846 36.7799 46.706 36.7554 46.8232C36.731 46.9403 36.6773 47.0494 36.5994 47.1402C36.4164 47.2599 36.195 47.3063 35.9794 47.2702C35.6594 47.2702 35.2494 47.1902 35.1394 47.2702C35.0294 47.3502 34.9794 47.7302 34.9594 48.0302C34.9166 48.3178 34.9371 48.6113 35.0194 48.8902C35.2146 49.1152 35.4324 49.3197 35.6694 49.5002L36.0594 49.7802C36.1484 49.8394 36.2262 49.9139 36.2894 50.0002C36.3494 50.0602 36.2894 50.2702 36.2194 50.2802C36.1725 50.3097 36.1221 50.3332 36.0694 50.3502C35.7556 50.3954 35.4534 50.5007 35.1794 50.6602C34.903 50.8136 34.6693 51.0336 34.4994 51.3002C34.4162 51.4356 34.3722 51.5913 34.3722 51.7502C34.3722 51.9091 34.4162 52.0648 34.4994 52.2002C34.3907 52.0695 34.3231 51.9094 34.3053 51.7404C34.2875 51.5713 34.3203 51.4007 34.3994 51.2502C34.5483 50.9429 34.776 50.6807 35.0594 50.4902C35.3374 50.301 35.6501 50.1685 35.9794 50.1002L35.9994 50.0002C35.9994 50.0002 35.9994 50.0802 35.9994 50.0702C35.9568 50.0315 35.9098 49.9979 35.8594 49.9702L35.4394 49.7002C35.2894 49.6002 35.1694 49.5002 35.0394 49.4002C34.8832 49.2993 34.7502 49.1664 34.6494 49.0102C34.5296 48.6879 34.4884 48.3416 34.5294 48.0002C34.5205 47.8303 34.5205 47.6601 34.5294 47.4902C34.5507 47.2732 34.6545 47.0728 34.8194 46.9302C35.0059 46.8295 35.2186 46.7877 35.4294 46.8102H35.9094C36.2994 46.8102 36.2694 46.8102 36.2494 46.5302C36.1725 46.2305 36.0511 45.944 35.8894 45.6802C35.736 45.4033 35.5657 45.1361 35.3794 44.8802C35.1688 44.5822 35.0286 44.2403 34.9694 43.8802C34.8034 43.2273 34.7526 42.5505 34.8194 41.8802C34.73 41.2688 34.4855 40.6904 34.1094 40.2002Z" fill="#231F20"/>
<path d="M36.2298 51.9404C36.4094 52.9883 36.3616 54.0626 36.0898 55.0904" stroke="#231F20" stroke-width="0.22" stroke-linecap="round" stroke-linejoin="round"/>
<path d="M70.1509 32.2805C70.01 30.8732 70.091 29.4526 70.3909 28.0705C70.7809 26.7905 70.6309 25.6505 69.8209 23.7105C69.1138 21.8499 67.8362 20.2607 66.1709 19.1705C65.5476 18.7716 64.9648 18.3128 64.4309 17.8005C63.9309 17.3405 63.5609 17.0005 63.1309 16.9605C62.6375 16.947 62.1459 17.025 61.6809 17.1905C61.4192 17.2759 61.1519 17.3427 60.8809 17.3905C59.9563 17.5352 59.0924 17.9412 58.3909 18.5605L58.1609 18.8305C57.8209 19.2305 56.9209 20.3105 56.5409 20.3505H56.2709C55.4355 20.3147 54.6163 20.5889 53.9709 21.1205C53.8417 21.2629 53.7215 21.4132 53.6109 21.5705C53.3809 21.9005 53.3409 21.9605 52.8509 21.9205C52.2701 21.8804 51.6866 21.9039 51.1109 21.9905C51.0142 22.0053 50.9273 22.0578 50.8692 22.1365C50.8111 22.2152 50.7865 22.3137 50.8009 22.4105C50.8203 22.5068 50.8754 22.5923 50.9551 22.6498C51.0348 22.7072 51.1333 22.7325 51.2309 22.7205C51.7506 22.6449 52.2769 22.6248 52.8009 22.6605C53.0755 22.7141 53.3601 22.6791 53.6135 22.5605C53.867 22.4418 54.0762 22.2457 54.2109 22.0005C54.3009 21.8905 54.3909 21.7605 54.5109 21.6205C55.0431 21.2482 55.6818 21.0587 56.3309 21.0805H56.6109C57.2409 21.0205 57.9709 20.2005 58.7309 19.3005L58.9409 19.0505C59.5315 18.5611 60.2431 18.2398 61.0009 18.1205C61.301 18.0658 61.598 17.9957 61.8909 17.9105C62.2652 17.7699 62.6611 17.6955 63.0609 17.6905C63.3907 17.8481 63.6863 18.0689 63.9309 18.3405C64.4995 18.8892 65.1228 19.3784 65.7909 19.8005C67.3245 20.8099 68.4977 22.2807 69.1409 24.0005C69.8709 25.7605 70.0109 26.7805 69.6809 27.8705C69.355 29.3573 69.2705 30.8868 69.4309 32.4005C69.4777 33.1331 69.4777 33.8679 69.4309 34.6005L70.1109 35.3605C70.121 35.3043 70.121 35.2467 70.1109 35.1905C70.1841 34.2222 70.1975 33.2504 70.1509 32.2805Z" fill="#231F20" stroke="#231F20" stroke-width="0.22" stroke-miterlimit="10"/>
<path d="M38.8206 42.54C38.6984 42.1077 38.6904 41.651 38.7973 41.2146C38.9042 40.7782 39.1224 40.377 39.4306 40.05C39.7934 39.778 40.217 39.5985 40.6648 39.527C41.1126 39.4556 41.5711 39.4944 42.0006 39.64C43.7206 40.11 45.1306 41.27 46.8306 41.7C48.4969 42.1971 50.2221 42.4695 51.9606 42.51C52.823 42.5212 53.6782 42.3509 54.4706 42.01C55.2586 41.6401 55.8895 41.0022 56.2506 40.21C55.9412 41.0554 55.323 41.7521 54.5206 42.16C53.72 42.5476 52.8399 42.7428 51.9506 42.73C50.1854 42.7062 48.4359 42.3955 46.7706 41.81C45.0906 41.29 43.6406 40.21 41.9406 39.81C41.5333 39.6886 41.1042 39.6588 40.6841 39.7228C40.264 39.7868 39.8632 39.9429 39.5106 40.18C39.2179 40.4932 39.0036 40.8712 38.8854 41.2832C38.7672 41.6952 38.7484 42.1294 38.8306 42.55L38.8206 42.54Z" fill="#231F20"/>
<path d="M38.5795 41.9996C38.5284 41.5707 38.5631 41.1358 38.6816 40.7204C38.8 40.3049 38.9999 39.9172 39.2695 39.5796C39.5835 39.2727 39.9701 39.0503 40.3933 38.9331C40.8164 38.816 41.2624 38.8079 41.6895 38.9096C43.3394 39.3217 44.9492 39.8806 46.4995 40.5796C47.2872 40.8897 48.1049 41.1176 48.9395 41.2596C49.7695 41.4096 50.5995 41.5796 51.4395 41.6796C52.2675 41.7966 53.1094 41.7729 53.9295 41.6096C54.7503 41.4021 55.4787 40.9271 55.9995 40.2596C55.5244 40.9676 54.817 41.4876 53.9995 41.7296C53.1633 41.9427 52.293 41.9869 51.4395 41.8596C50.5895 41.7796 49.7595 41.5896 48.9295 41.4296C48.0894 41.2623 47.2709 41.0006 46.4895 40.6496C44.9608 39.894 43.3406 39.3394 41.6695 38.9996C41.2665 38.9212 40.851 38.9354 40.4543 39.0411C40.0576 39.1467 39.6901 39.3411 39.3795 39.6096C38.8342 40.2831 38.5564 41.1341 38.5995 41.9996H38.5795Z" fill="#231F20"/>
<path d="M39.2207 39.6401C39.438 39.3468 39.7174 39.1051 40.0389 38.9322C40.3605 38.7594 40.7162 38.6596 41.0807 38.6401C41.8098 38.5514 42.549 38.5989 43.2607 38.7801C44.6707 39.1301 46.0107 39.6701 47.4107 40.0501C48.7837 40.4669 50.1883 40.7713 51.6107 40.9601C52.3182 41.0452 53.0333 41.0452 53.7407 40.9601C54.4576 40.8419 55.1401 40.5689 55.7407 40.1601C55.1544 40.5949 54.4866 40.9074 53.7772 41.0792C53.0677 41.251 52.331 41.2785 51.6107 41.1601C50.1724 40.9784 48.7576 40.6432 47.3907 40.1601C46.0379 39.6637 44.6551 39.2529 43.2507 38.9301C42.5505 38.7858 41.8342 38.7353 41.1207 38.7801C40.7662 38.7979 40.4189 38.8868 40.0994 39.0414C39.7799 39.196 39.4947 39.4132 39.2607 39.6801L39.2207 39.6401Z" fill="#231F20"/>
<path d="M68.7704 40.9301C69.0146 40.3065 69.0146 39.6138 68.7704 38.9901C68.6827 38.8567 68.5643 38.7462 68.4251 38.6679C68.2859 38.5896 68.13 38.5458 67.9704 38.5401C67.6305 38.4947 67.2847 38.5432 66.9704 38.6801C65.7104 39.1701 64.8004 40.2601 63.5804 40.9001C62.3875 41.5761 61.0719 42.0078 59.7104 42.1701C59.0196 42.2464 58.3219 42.1103 57.7104 41.7801C57.1122 41.4251 56.6508 40.8792 56.4004 40.2301C56.6868 40.8408 57.1595 41.3449 57.7504 41.6701C58.3543 41.9571 59.0249 42.0747 59.6904 42.0101C61.0282 41.8322 62.3264 41.4299 63.5304 40.8201C64.7604 40.2501 65.6404 39.1201 66.9104 38.5601C67.2253 38.4242 67.5683 38.3658 67.9104 38.3901C68.0925 38.4016 68.269 38.4578 68.4243 38.5537C68.5795 38.6496 68.7087 38.7824 68.8004 38.9401C68.9188 39.2639 68.9692 39.6085 68.9486 39.9526C68.928 40.2967 68.8367 40.6329 68.6804 40.9401L68.7704 40.9301Z" fill="#231F20"/>
<path d="M69.0004 40.3498C69.1262 39.7198 69.0672 39.0669 68.8304 38.4698C68.6535 38.2137 68.3952 38.0249 68.0975 37.9342C67.7997 37.8434 67.4801 37.856 67.1904 37.9698C65.9724 38.4026 64.8314 39.0271 63.8104 39.8198C62.7064 40.52 61.493 41.0304 60.2204 41.3298C59.5697 41.5175 58.8826 41.5416 58.2204 41.3998C57.5835 41.2131 57.0296 40.8144 56.6504 40.2698C57.0571 40.7629 57.6106 41.1133 58.2304 41.2698C58.861 41.3685 59.5055 41.331 60.1204 41.1598C60.7504 41.0098 61.3504 40.7798 61.9704 40.5698C62.5806 40.3572 63.1644 40.0754 63.7104 39.7298L65.3504 38.7298C65.8917 38.3583 66.4847 38.0685 67.1104 37.8698C67.4366 37.7846 67.7763 37.7642 68.1104 37.8098C68.2787 37.8511 68.4358 37.9289 68.5706 38.0378C68.7054 38.1467 68.8146 38.2839 68.8904 38.4398C69.1452 39.0776 69.1735 39.7836 68.9704 40.4398L69.0004 40.3498Z" fill="#231F20"/>
<path d="M68.8309 38.3902C68.6748 38.1735 68.4688 37.9976 68.2303 37.8775C67.9918 37.7574 67.7279 37.6966 67.4609 37.7002C66.9296 37.7085 66.4044 37.8135 65.9109 38.0102C64.906 38.4123 63.9332 38.8904 63.0009 39.4402C62.0648 39.9987 61.055 40.4229 60.0009 40.7002C59.4703 40.8587 58.9091 40.886 58.3657 40.7798C57.8222 40.6735 57.3127 40.4369 56.8809 40.0902C57.3251 40.3927 57.8323 40.5904 58.3641 40.6684C58.8959 40.7463 59.4385 40.7025 59.9509 40.5402C60.9882 40.2537 61.9934 39.8616 62.9509 39.3702C63.9509 38.9102 64.8709 38.3702 65.8609 37.8902C66.3726 37.6726 66.9249 37.5669 67.4809 37.5802C67.7606 37.587 68.0338 37.666 68.2739 37.8097C68.514 37.9534 68.7128 38.1569 68.8509 38.4002L68.8309 38.3902Z" fill="#231F20"/>
<path d="M46.3008 38.79C47.0508 38.97 47.8008 39.16 48.5408 39.37C49.2808 39.58 50.0208 39.8 50.7508 39.98C51.491 40.1629 52.2486 40.2669 53.0108 40.29C53.7785 40.3237 54.5462 40.2256 55.2808 40C53.8068 40.5227 52.2076 40.5786 50.7008 40.16C49.9508 39.96 49.2308 39.73 48.4908 39.5C47.7508 39.27 47.0008 39.05 46.3008 38.79Z" fill="#231F20"/>
<path d="M51.0003 39.2704C52.0688 39.7925 53.2885 39.9166 54.4403 39.6204C53.2826 39.993 52.0295 39.9362 50.9103 39.4604C50.8964 39.4561 50.8837 39.4489 50.8729 39.4392C50.8622 39.4295 50.8536 39.4176 50.8479 39.4043C50.8422 39.391 50.8395 39.3766 50.8399 39.3621C50.8403 39.3476 50.8438 39.3334 50.8503 39.3204C50.8546 39.3066 50.8618 39.2939 50.8715 39.2831C50.8812 39.2723 50.8931 39.2638 50.9064 39.2581C50.9197 39.2524 50.9341 39.2496 50.9486 39.25C50.9631 39.2504 50.9773 39.254 50.9903 39.2604L51.0003 39.2704Z" fill="#231F20"/>
<path d="M57.6309 39.9101C58.0204 40.1165 58.4621 40.2035 58.9009 40.1601C59.3329 40.1659 59.7636 40.1121 60.1809 40.0001C61.0194 39.7457 61.8249 39.3932 62.5809 38.9501C63.3585 38.4795 64.167 38.0619 65.0009 37.7001C65.8071 37.3029 66.7269 37.2003 67.6009 37.4101C66.7311 37.2879 65.8451 37.4455 65.0709 37.8601C64.2698 38.2257 63.4917 38.6398 62.7409 39.1001C61.9617 39.5334 61.1321 39.8693 60.2709 40.1001C59.8412 40.2505 59.3852 40.3113 58.9312 40.2786C58.4771 40.2459 58.0345 40.1205 57.6309 39.9101Z" fill="#231F20"/>
<path d="M58.6006 39.4297C58.8462 39.5062 59.1039 39.5367 59.3606 39.5197C59.6232 39.511 59.8843 39.4775 60.1406 39.4197C60.6661 39.3096 61.1789 39.1454 61.6706 38.9297C61.1938 39.1834 60.6908 39.3846 60.1706 39.5297C59.9092 39.6046 59.6414 39.6549 59.3706 39.6797C59.0899 39.7342 58.8013 39.7342 58.5206 39.6797C58.4942 39.6707 58.4719 39.6528 58.4573 39.629C58.4427 39.6053 58.4368 39.5773 58.4406 39.5497C58.444 39.5349 58.4505 39.5211 58.4595 39.5089C58.4686 39.4968 58.48 39.4867 58.4931 39.4792C58.5063 39.4716 58.5208 39.4669 58.5359 39.4653C58.5509 39.4637 58.5661 39.4652 58.5806 39.4697L58.6006 39.4297Z" fill="#231F20"/>
<path d="M57.6208 28.2803C57.2213 28.6513 56.9132 29.1099 56.7206 29.6199C56.528 30.13 56.4562 30.6778 56.5108 31.2203C56.5757 31.4631 56.6878 31.6908 56.8408 31.8903C57.0108 32.1103 57.1808 32.3303 57.3608 32.5403C57.7208 32.9703 58.1008 33.4003 58.4508 33.8503C59.2811 34.7567 59.7845 35.9148 59.8808 37.1403C59.8608 37.7941 59.6331 38.4245 59.2308 38.9403C58.8475 39.471 58.32 39.8805 57.7108 40.1203C57.1042 40.3305 56.4552 40.3888 55.8208 40.2903C55.4987 40.2433 55.1853 40.149 54.8908 40.0103L54.1408 39.6303C53.6802 39.3914 53.1837 39.2293 52.6708 39.1503C52.1465 39.1522 51.625 39.2262 51.1208 39.3703C50.5508 39.5142 49.968 39.6013 49.3808 39.6303C49.0572 39.6695 48.729 39.6216 48.4302 39.4915C48.1313 39.3614 47.8726 39.1538 47.6808 38.8903C47.5415 38.6046 47.4846 38.2859 47.5164 37.9697C47.5482 37.6535 47.6675 37.3524 47.8608 37.1003C48.1808 36.6303 48.7408 36.1603 49.3208 36.3303C48.7408 36.2703 48.3208 36.7803 48.0708 37.2203C47.9156 37.4191 47.8281 37.6625 47.8213 37.9146C47.8145 38.1668 47.8886 38.4145 48.0329 38.6214C48.1772 38.8284 48.384 38.9836 48.623 39.0644C48.862 39.1452 49.1206 39.1472 49.3608 39.0703C49.9179 39.0039 50.4671 38.8833 51.0008 38.7103C51.5697 38.4948 52.1725 38.383 52.7808 38.3803C53.3906 38.4447 53.9854 38.6103 54.5408 38.8703L55.3108 39.2403C55.5284 39.3441 55.7614 39.4117 56.0008 39.4403C56.4917 39.5107 56.9923 39.4627 57.4608 39.3003C57.9088 39.1208 58.2987 38.8216 58.588 38.4353C58.8773 38.049 59.0547 37.5906 59.1008 37.1103C59.0213 36.063 58.6236 35.0651 57.9608 34.2503C57.6508 33.7903 57.3108 33.3403 56.9608 32.8803C56.7908 32.6503 56.6308 32.4103 56.4708 32.1703C56.2939 31.9093 56.1777 31.612 56.1308 31.3003C56.0604 30.6947 56.2017 30.0835 56.5308 29.5703C56.8095 29.0753 57.1793 28.6376 57.6208 28.2803Z" fill="#231F20"/>
<path d="M52.1795 38.6403C52.0527 38.114 52.1091 37.5602 52.3395 37.0703C52.2572 37.6049 52.3373 38.1518 52.5695 38.6403H52.1795Z" fill="#231F20" stroke="#231F20" stroke-width="0.22" stroke-linecap="round" stroke-linejoin="round"/>
<path d="M52.8304 38.6901C52.7068 38.1627 52.7667 37.6089 53.0004 37.1201C52.9187 37.6547 52.9988 38.2015 53.2304 38.6901H52.8304Z" fill="#231F20" stroke="#231F20" stroke-width="0.22" stroke-linecap="round" stroke-linejoin="round"/>
<path d="M53.4705 38.7302C53.3437 38.2039 53.4001 37.6501 53.6305 37.1602C53.5482 37.6947 53.6283 38.2417 53.8605 38.7302H53.4705Z" fill="#231F20" stroke="#231F20" stroke-width="0.22" stroke-linecap="round" stroke-linejoin="round"/>
<path d="M40.2101 27.2299C39.5101 28.3999 38.6001 29.1499 38.2101 28.8999C37.8201 28.6499 38.0501 27.5099 38.7601 26.3399C39.4701 25.1699 40.3701 24.4199 40.7601 24.6599C41.1501 24.8999 40.9201 26.0599 40.2101 27.2299Z" stroke="#231F20" stroke-width="0.22" stroke-linejoin="round"/>
<path d="M67.7999 33C68.2806 33.2852 68.7297 33.6204 69.1399 34C69.5604 34.3859 69.9391 34.8149 70.2699 35.28C70.6177 35.7667 70.8907 36.3026 71.0799 36.87C71.2816 37.4613 71.3634 38.0869 71.3204 38.7102C71.2775 39.3335 71.1108 39.9419 70.8299 40.5C70.5631 41.026 70.2267 41.5137 69.8299 41.95C69.0683 42.7685 68.1677 43.4456 67.1699 43.95C68.0279 43.2635 68.8152 42.493 69.5199 41.65C70.2367 40.8023 70.6765 39.7553 70.7799 38.65C70.8238 37.5505 70.5269 36.4643 69.9299 35.54C69.3416 34.5983 68.6247 33.7434 67.7999 33Z" fill="#231F20" stroke="#231F20" stroke-width="0.44" stroke-linecap="round" stroke-linejoin="round"/>
<path d="M74.6099 44.31C74.6099 44.31 74.2199 42.97 73.5399 42.66C73.5399 42.66 73.4099 40.11 72.8199 39.57C72.8199 39.57 72.6099 38.89 73.7499 38.04C74.4911 37.3918 74.9886 36.5097 75.1599 35.54C75.1599 35.54 77.1599 37.31 74.5999 39.77" fill="white"/>
<path d="M74.6099 44.31C74.6099 44.31 74.2199 42.97 73.5399 42.66C73.5399 42.66 73.4099 40.11 72.8199 39.57C72.8199 39.57 72.6099 38.89 73.7499 38.04C74.4911 37.3918 74.9886 36.5097 75.1599 35.54C75.1599 35.54 77.1599 37.31 74.5999 39.77" stroke="#231F20" stroke-width="0.44" stroke-linecap="round" stroke-linejoin="round"/>
<path d="M76.5408 37.1496C76.5408 37.1496 76.1708 37.8196 77.1308 38.2996C77.1308 38.2996 79.1308 36.0196 80.1308 35.8396C80.1308 35.8396 80.7908 34.6396 79.7708 34.1396C78.7508 33.6396 76.5408 37.1496 76.5408 37.1496Z" fill="white" stroke="#231F20" stroke-width="0.44" stroke-linecap="round" stroke-linejoin="round"/>
<path d="M77.0701 38.5903C77.0701 38.5903 76.6701 39.3003 77.7301 39.8203C77.7301 39.8203 79.9501 37.3903 80.9801 37.2003C80.9801 37.2003 81.7101 35.9203 80.5901 35.3803C79.4701 34.8403 77.0701 38.5903 77.0701 38.5903Z" fill="white" stroke="#231F20" stroke-width="0.44" stroke-linecap="round" stroke-linejoin="round"/>
<path d="M77.5498 40.0603C77.5498 40.0603 77.1598 40.7403 78.1798 41.2503C78.1798 41.2503 80.3298 38.9003 81.3198 38.7203C81.3198 38.7203 82.0198 37.4803 80.9398 36.9603C79.8598 36.4403 77.5498 40.0603 77.5498 40.0603Z" fill="white" stroke="#231F20" stroke-width="0.44" stroke-linecap="round" stroke-linejoin="round"/>
<path d="M78.5598 41.0003C78.5598 41.0003 78.1798 41.5103 78.9398 42.0003C79.8956 41.5089 80.8117 40.9439 81.6798 40.3103C81.6798 40.3103 82.3598 39.4003 81.5598 38.8803C80.7598 38.3603 78.5598 41.0003 78.5598 41.0003Z" fill="white" stroke="#231F20" stroke-width="0.44" stroke-linecap="round" stroke-linejoin="round"/>
<path d="M76.47 43.9303C76.647 43.5645 76.7493 43.1672 76.7711 42.7615C76.7928 42.3557 76.7335 41.9497 76.5967 41.5671C76.4599 41.1845 76.2482 40.833 75.9741 40.5331C75.6999 40.2332 75.3688 39.9909 75 39.8203" stroke="#231F20" stroke-width="0.44" stroke-linecap="round" stroke-linejoin="round"/>
</g>
<defs>
<clipPath id="clip0_36_286">
<rect width="100" height="100" fill="white"/>
</clipPath>
</defs>
</svg>
