<svg xmlns="http://www.w3.org/2000/svg" viewBox="0 0 100 100"><defs><style>.cls-1{fill:#fcc210;}.cls-13,.cls-19,.cls-2,.cls-3{fill:#fff;}.cls-2,.cls-3{stroke:#fff;}.cls-13,.cls-15,.cls-2,.cls-3{stroke-miterlimit:10;}.cls-2{stroke-width:0.23px;}.cls-3{stroke-width:0.1px;}.cls-10,.cls-14,.cls-16,.cls-17,.cls-18,.cls-4,.cls-5,.cls-9{fill:none;}.cls-10,.cls-11,.cls-12,.cls-13,.cls-14,.cls-15,.cls-16,.cls-17,.cls-18,.cls-19,.cls-4,.cls-5,.cls-6,.cls-8,.cls-9{stroke:#231f20;}.cls-10,.cls-11,.cls-12,.cls-14,.cls-16,.cls-17,.cls-18,.cls-19,.cls-4,.cls-5,.cls-6,.cls-8,.cls-9{stroke-linejoin:round;}.cls-4{stroke-width:0.47px;}.cls-14,.cls-5{stroke-width:0.66px;}.cls-6{fill:#885a24;}.cls-11,.cls-19,.cls-6,.cls-9{stroke-width:0.44px;}.cls-11,.cls-12,.cls-15,.cls-7,.cls-8{fill:#231f20;}.cls-10,.cls-11,.cls-14,.cls-17,.cls-19,.cls-8,.cls-9{stroke-linecap:round;}.cls-10,.cls-12,.cls-13,.cls-15,.cls-18,.cls-8{stroke-width:0.22px;}.cls-16,.cls-17{stroke-width:0.88px;}</style></defs><title>Asset 10</title><g id="Layer_2" data-name="Layer 2"><g id="Layer_1-2" data-name="Layer 1"><circle class="cls-1" cx="50" cy="50" r="50"/><polygon class="cls-2" points="76.34 47.49 74.12 45.44 73.42 41.26 75.97 37.42 81.37 38.62 80.31 43.93 76.34 47.49"/><path class="cls-3" d="M81.3,40.64a1,1,0,0,0,.55-1.3,1.33,1.33,0,0,0-.52-.55c.52-1.33-.2-1.82-.2-1.82.43-1.5-.84-1.73-.84-1.73a1.11,1.11,0,0,0-.72-1.19m-6.3,4.36a1.53,1.53,0,0,0-.46,1.13c.61.43.75,3.12.75,3.12a1.78,1.78,0,0,1,.81,1.09c-.84.75.09,2,.09,2s-.52,1.56-.72,2-.55,1.35-.55,1.35-2-3.55-2.37-4.3a3.69,3.69,0,0,1-.09-2.42c.18-.52-.43-1.39-.43-1.39a3.13,3.13,0,0,0,.81-2.34,8.4,8.4,0,0,0-1.27-3.84s0-3-.15-4.21.38-2.14.64-3.35-1-3.55-1.73-5a7.32,7.32,0,0,0-2.8-2.77,11.58,11.58,0,0,1-2-1.82c-.61-.61-1.59-.15-2.54.08a12.77,12.77,0,0,0-1.94.67c-.14-.81-1.1-1-1.76-1a6.56,6.56,0,0,1-2-.58,7.36,7.36,0,0,1-1.3-1.39s-.52.2-.84.37a5.73,5.73,0,0,1-1.67.47,4.77,4.77,0,0,0-1.94.89A11.12,11.12,0,0,0,48,19c-.6.67-1,1.19-1,1.19a6.66,6.66,0,0,1-1-.47c-.63-.34-1.56-.05-2.34.06a1.69,1.69,0,0,1-1.55-.52,4.1,4.1,0,0,0-1.62-.72,7.9,7.9,0,0,1-2-.87c-.87-.5-1.36.23-1.94.84S35,19.88,34,20.83a17.47,17.47,0,0,0-2.62,3.43,2.67,2.67,0,0,0-.26,2.4A14.1,14.1,0,0,1,31.18,30c-.08,1.33-.57,2.8-.81,4.24a2.41,2.41,0,0,0,.41,2.08,3.38,3.38,0,0,0-2,3.44c-9.15,6.78-9,8.2-9,8.2-.69,0-2.4,1.09-1.5,2.57s2.91-.24,2.91-.24a6.34,6.34,0,0,1,5.66,2.37,2.28,2.28,0,0,0,.32,2.08c.75.75,2.05.2,2.05.2a1.21,1.21,0,0,0,0,1.68,2.82,2.82,0,0,0-1.79.72,4.94,4.94,0,0,1,1.85,1.36A2,2,0,0,0,27.37,61,6.5,6.5,0,0,1,29.51,60l.06.43.52-.12s.14,2.71.08,3.81-.23,3.35-.2,4.28a11.61,11.61,0,0,0,.49,3.23,17.82,17.82,0,0,0,2.11,3.72c.55.49,1.36,1.1,2.37,1.94A12.71,12.71,0,0,0,38,79.17c1.12.52,1.7.24,2.08-.34s-.81-3.47-1.36-5.23a12.12,12.12,0,0,1-.38-4.41c.06-1-.11-1.53.2-1.88s.9-2.37,1.5-3.64a3.15,3.15,0,0,1,1.8-1.61,32,32,0,0,0,2,3.6,5.43,5.43,0,0,1,1,3.15A20.08,20.08,0,0,1,44.69,72a10.09,10.09,0,0,0,0,2.1c0,1.1-.49,6.79-.6,7.74s-.26,2.66.31,2.8,1.82-1.47,2-1.88A23,23,0,0,0,48,80.59a26.31,26.31,0,0,0,1.39-4.16,18.82,18.82,0,0,1,1.76-4.21,34.42,34.42,0,0,0,2.25-6.76c.64-2.6,1.36-7,1.36-7a1.47,1.47,0,0,1,1.38-1.07c1.1,0,1.77,2.4,1.83,2.89s0,1.18,0,1.67.61,2.2.78,3.41a15.34,15.34,0,0,0,.61,2.48s-1.3,7.77-1.59,9.61S60.57,76,61.64,74.9s2.42-4,4-7.07a40.82,40.82,0,0,0,3.58-9.27c.32-1.93-1.53-6.12-1.53-6.12a3.4,3.4,0,0,0-.49-3.72c-.61-.78.78-2.37.78-2.37,1.79.67,4.1,6.38,4.62,7.19a4.27,4.27,0,0,1,.14,2.51,1.8,1.8,0,0,0,1.16.15c.63-.15.89-2.34,1.21-4.19a14.37,14.37,0,0,1,1.1-3.44M32.14,50.8s-.64-1.76-2.75-.87c0,0-3.35-2.34-5.8-2.36,0,0,5.89-5.61,7.74-6.21a2.79,2.79,0,0,0,.29,1.82,2.27,2.27,0,0,1,.69,2c-.23.72-1.07,2.54-.55,3.06a4.07,4.07,0,0,1,.66.78A5.42,5.42,0,0,0,32.14,50.8Z"/><path class="cls-4" d="M55.22,42.72a2.41,2.41,0,0,0,2.53,0"/><path class="cls-5" d="M54.42,43.22a4,4,0,0,0,4.36-.31"/><path class="cls-6" d="M56.35,40a2.39,2.39,0,0,1-1,2.73c-2.81,1.63-7.32.91-12-1.45-4.49-2.26-4.54,1-4.34,1.87,0,0-2.4-4.08,1.84-5.07,2.21-.52,6.17.82,7.34,1.16a5.63,5.63,0,0,0,3.28-.2c.7-.28,1.1-.79,2-.33S55.8,40.09,56.35,40Z"/><path class="cls-6" d="M56.56,40.09s-.41,1.9.8,2.43c2.19.95,5.6.62,8.55-1.8s3-.7,2.62.51a2.46,2.46,0,0,0,1.12-1.73c.22-1-.49-2.13-2.54-2.23a10.43,10.43,0,0,0-4.79,1.22c-2.17.94-1.92,0-3.26.4A14.85,14.85,0,0,0,56.56,40.09Z"/><path class="cls-7" d="M58.15,39.19a1.89,1.89,0,0,1,1.41-.86,3.39,3.39,0,0,0,1.51.05,1,1,0,0,0,.84-.88,2.21,2.21,0,0,0-.79-1.25,1.86,1.86,0,0,1,1.12,1.21,1.31,1.31,0,0,1-1.07,1.35,3.22,3.22,0,0,1-1.65-.15A2.26,2.26,0,0,0,58.15,39.19Z"/><path class="cls-8" d="M58.43,34.89s-1-1-3.45-.44a4.24,4.24,0,0,1,3.07-.35Z"/><path class="cls-8" d="M55,33.7s1.85-.68,2.74.11l-.5-.68A2.92,2.92,0,0,0,55,33.7Z"/><path class="cls-8" d="M57.08,32.84a2.65,2.65,0,0,0-1.78-.08,2.35,2.35,0,0,1,1.41-.43Z"/><path class="cls-8" d="M60.63,38.75s.86-.63.61-1.45c0,0-.2,1.18-1,1.26Z"/><path class="cls-9" d="M74.37,43.67a1.2,1.2,0,0,0-.4,1c0,.7.64,1.53,2,1.78s2.76-.16,2.61-1.54c0,0,2.22.59,2.44-4.06"/><path class="cls-9" d="M77.1,45.55s.13.69-.16.9"/><path class="cls-10" d="M77.61,45.44a1,1,0,0,1,0,.77"/><path class="cls-10" d="M78,45.25A1.12,1.12,0,0,1,78,46"/><path class="cls-9" d="M32.12,51.49S35.42,51,36,55.17c0,0,.81.71.33,1.19s-2.1,2.72-1.53,4.3a5.59,5.59,0,0,0-5.21-.19s-.67-2.48,3.92-1.86c0,0-1.15-1.34.57-1.82,0,0-2,.24-2.81-.91a2.37,2.37,0,0,1,.05-2.49"/><path class="cls-9" d="M29.45,60a5.4,5.4,0,0,0-2.11.91s-.47-2.44,3.11-2.34"/><path class="cls-9" d="M31.31,58.42c-1.82-3-3.87-1-3.87-1a5.49,5.49,0,0,1,1.86,1.2"/><path class="cls-9" d="M30.74,60.18s.76,1.39,1.29,1.39,1.1-1.48,1.1-1.48"/><path class="cls-11" d="M29.27,55s-.72,1.1-.06,1.74a3.32,3.32,0,0,1,2.39,1.81h.62A1,1,0,0,1,33.08,57s-3.17-.15-2.21-3.2A9.14,9.14,0,0,1,29.27,55Z"/><path class="cls-11" d="M51,46.35s10.08,1.78,11.8-1.91c0,0,.43-1.35-.37-1.17s0,1-.73,1.36C59.59,45.85,57.62,47.08,51,46.35Z"/><path class="cls-11" d="M48.54,52.86a4.31,4.31,0,0,0,3.55.6,13.5,13.5,0,0,1,5.53-.92c2,.23,2.86.18,3.27-.33a14.53,14.53,0,0,1,1.25-1.56c.32-.23.46-.6.51-1.29s.32-.92,0-1.25,0-1,.37-.41,1.2,2.3.69,3-.92,1.11-1.15,1.52a2.28,2.28,0,0,1-2.12,1.16,12.58,12.58,0,0,0-2.91,0c-.55.19-.14.46-2,.46s-.88.42-2.21.69-1.25.7-2.63.19-2-1.15-2.44-1.06S46.6,53.14,47,52.49,47.43,52,48.54,52.86Z"/><path class="cls-11" d="M51,54.84s-.69.28-.32.6,0,.28.92.14,1.8.37,1.93.09S52.14,54.66,51,54.84Z"/><path class="cls-7" d="M52.14,56a4.43,4.43,0,0,0,.73.05c.46,0,.88.23.56.41s-.7.09-.6.28.13.37-.51.37-1-.23-.65-.37S51.4,56,52.14,56Z"/><path class="cls-7" d="M46.53,32.28a8.08,8.08,0,0,1,1.58-.65,4,4,0,0,1,.86-.18,6.26,6.26,0,0,1,.88,0c.53.08,1.17.21,1.49,0,0,0,.07-.1,0-.26a.58.58,0,0,1,0-.28.39.39,0,0,1,.24-.18,2.14,2.14,0,0,1,.87,0,2.8,2.8,0,0,0-.79.24c-.12.08-.1.07-.07.21a.57.57,0,0,1-.07.54,1.19,1.19,0,0,1-.93.29c-.3,0-.59,0-.86-.07a4.82,4.82,0,0,0-.81-.08c-.26,0-.53.07-.8.1C47.64,32.05,47.09,32.18,46.53,32.28Z"/><path class="cls-7" d="M58.59,30.8a1,1,0,0,0,.39.5.48.48,0,0,0,.52-.05,7.57,7.57,0,0,1,1.32-.44,4.77,4.77,0,0,1,2.75.12,8.6,8.6,0,0,0-1.35.07,11.61,11.61,0,0,0-1.31.24c-.44.08-.87.2-1.29.32a.73.73,0,0,1-.77-.09A1,1,0,0,1,58.59,30.8Z"/><path class="cls-10" d="M38.14,31.86s.67.92,3,.38A9.7,9.7,0,0,0,38,33.75"/><path class="cls-10" d="M68.88,30.42a1.89,1.89,0,0,1-1.43.47s.93.42,1,1"/><path class="cls-12" d="M43.85,28l.4.12.09-.21h.4l.16-.06h.28l.09-.16.24.12.13-.18h0l.12-.12-.06-.12.06-.16.15.22.12.06.28.06.16,0v-.24l.15,0,.18-.16L46.68,27a.34.34,0,0,1,.18.12.65.65,0,0,1,.1.21.38.38,0,0,0,.27,0l-.06-.15h0v-.28a.75.75,0,0,0,.34,0l.28.13.15.21.18.06.19.1c.18-.13,0-.1.18-.13h0l.16,0v-.34l.31.16v.21l.18-.09h0l.43-.09,0-.16.34.31.24-.15.09.21.19,0,.06.16h0l.28.21.15,0,.12.19h.19l.21-.16.1.31.33,0,.22.06.12-.12h.25l.18.06,0,.15.31-.18v-.31l-.15-.18v-.19l0-.21,0-.22s.09-.25,0-.21-.16-.25-.22-.16l-.06.1,0,.15-.18-.06-.13-.19v-.12l-.18-.12-.22.27-.18,0-.09-.15-.1-.12h-.12l-.21.09-.19,0-.15-.15L50.64,26h-.15l-.15.19-.19,0L50,26.12,49.75,26l-.21-.09-.19-.22-.12-.09-.12-.06-.25,0-.12-.12-.15-.13-.22,0-.18,0-.25,0a.32.32,0,0,0-.22,0l-.18.13h0l-.34.12H47l-.16,0-.12.15-.18,0-.25,0-.12.16-.28,0-.09.25-.31,0-.18.28-.06.18v.16l0,.12L45,26.8l-.22.19-.27,0-.06.15-.16.06-.24.09,0,.19-.16.18Z"/><path class="cls-12" d="M58.39,27.86h.38l.27-.11.22-.17.33-.16,0,.27h.27l.21-.21.28.21.32-.21H61l.38-.38.21-.16.17-.22.21-.16v.32l.49-.11.38.17.16-.17.22-.21.27-.06-.06.33.24-.28.09-.1.43-.05-.05.27.38-.33-.06.38.23-.13.26-.14.21.49.17-.06.16-.05.32.22c0,.21.44.1.44.1l.32.17.22.37.32.17.27-.22-.05-.27-.38-.22L66.61,27l-.43-.32v-.22L66,26.29l-.27-.38-.54-.17-.32-.27-.6,0,.06-.27h-.6l-.48.16-.54.22-.44.16-.43.11.49-.65.11-.27-.54.43-.22.06-.38.05-.16.22-.38.21L60.4,26l-.33.1-.32-.05v.27l-.22.22-.38.38-.38.21Z"/><path class="cls-10" d="M41.75,32.11s.37,0,2.26-.51a36,36,0,0,1,6.09-.88c.46.1.87-.09.37-.5a6.08,6.08,0,0,0-4.57-.92c-1.75.55-2.58,2-3.09,2.16S41.38,31.69,41.75,32.11Z"/><path class="cls-8" d="M45.16,31.28s-.64-1.25.42-1.85,4,.1,4.89.79-.42.55-.56.5S45.16,31.28,45.16,31.28Z"/><path class="cls-10" d="M59.69,30.49s4.51-1.1,6.77.14c0,0,.92.32.19-.5a3.67,3.67,0,0,0-3.74-1.57,6.13,6.13,0,0,0-3.09,1.38C59.46,30.08,59.13,30.45,59.69,30.49Z"/><path class="cls-8" d="M61.34,30.17a.72.72,0,0,1,0-1.2c.78-.6,3.32-.69,4.29.23s2,1.8.55,1.29A18.9,18.9,0,0,0,61.34,30.17Z"/><path class="cls-13" d="M45.66,30.41c0,.33-.12.6-.28.6s-.28-.27-.28-.6.12-.59.28-.59S45.66,30.09,45.66,30.41Z"/><path class="cls-13" d="M49.93,30.27a.18.18,0,1,1-.18-.15A.17.17,0,0,1,49.93,30.27Z"/><path class="cls-13" d="M66.12,30c0,.09-.17.12-.32.07s-.26-.14-.24-.22.17-.11.32-.07S66.14,30,66.12,30Z"/><path class="cls-13" d="M61.67,29.63c0,.21-.11.39-.24.39s-.25-.18-.25-.39.11-.4.25-.4S61.67,29.4,61.67,29.63Z"/><path class="cls-7" d="M31.69,49.93a1.73,1.73,0,0,0-1.21-.44,3.19,3.19,0,0,0-1.47.4,7.65,7.65,0,0,1,.72.56.54.54,0,0,1,.22.13c.42.39.23,1.3-.42,2a2.13,2.13,0,0,1-1.44.75.67.67,0,0,1-.71-.5l-.66-.33a4,4,0,0,0-.16.57A2,2,0,0,0,27,54.91a1.73,1.73,0,0,0,1.21.44A4,4,0,0,0,31,54C32.29,52.58,32.59,50.78,31.69,49.93Zm-1,3.77A3.69,3.69,0,0,1,28.25,55a1.35,1.35,0,0,1-.95-.34,1.59,1.59,0,0,1-.37-1.52c0-.1,0-.21.07-.31a1,1,0,0,0,.32.59,1.08,1.08,0,0,0,.77.29,2.46,2.46,0,0,0,1.71-.86c.81-.87,1-2,.41-2.52a1.13,1.13,0,0,0-.63-.27,2.53,2.53,0,0,1,.9-.18,1.39,1.39,0,0,1,1,.34C32.19,50.91,31.88,52.48,30.74,53.7Z"/><path class="cls-14" d="M30.28,51.06a10.8,10.8,0,0,0-6.82-3.5s5.3-5.39,10.1-7.51"/><path class="cls-14" d="M27.66,53.32s-2.45-3.46-6.36-3.09c0,0-2.14,2-3,.37-1-2,1.52-2.58,1.52-2.58s-.22-1.65,9.08-8.3c0,0-1.06-1.93,3.41-4.33"/><path class="cls-14" d="M74.44,45.86a7.53,7.53,0,0,1-.35,1.19c-.2.46-1.51,3.17-1.12,5"/><path class="cls-5" d="M77.1,46.4a23.38,23.38,0,0,0-2.61,9s-.2,1.32-1.71.72a5.6,5.6,0,0,0-.14-2.5c-.39-1-3.29-7.18-4.67-7.24"/><path class="cls-14" d="M70.4,41.13s.53.92.33,1.38A3.29,3.29,0,0,0,71,45.28c.65,1.18,2.22,3.87,2.22,3.87"/><path class="cls-8" d="M52.09,23.91A5.18,5.18,0,0,0,51,22.06c-.55-.36-1.1-.61-1.59-1s-1-.25-1.79-.37a16.94,16.94,0,0,1-2.21-.37c-.92-.24-3-.92-3.75.13S37.58,24.83,37.28,26a5.17,5.17,0,0,1-.68,1.66s-2.77,1.17-3.13,3.2c0,0,2.15-2.77,3.38-2.15A18.51,18.51,0,0,1,38,25.94c.43-.62,2.22-2.4,3-3.38S42.13,21,43.11,21s3.26.37,4.25.49a4.35,4.35,0,0,1,2.45.68,7.25,7.25,0,0,0,1.23,1c.37.19.62,1,.86,1.05S52.09,23.91,52.09,23.91Z"/><path class="cls-8" d="M52,23.69s.12.4.46.43.92,0,1,0a3.85,3.85,0,0,1,.68.25h.52l.52.68.13.61a2.3,2.3,0,0,0-.53-.55,2.57,2.57,0,0,0-.7-.34c-.19-.06-.46-.12-.52-.22s-.1-.18-.37-.18-.37,0-.59,0-.67.06-.92-.28Z"/><path class="cls-15" d="M55.25,25.08l-.12-.85.55.42s0-1.06.33-1,.87.37,1,.32a4.53,4.53,0,0,1,.83,0l.37.19s.42-.05.46-.24a4.6,4.6,0,0,0,.09-.46l-.09-.27.78,1,.23.5s.37-.78.65-.74.92.1.92.1l.56-.1.32-.46.27-.23.24-.09.46.19a3.25,3.25,0,0,0,.55-.56,3.51,3.51,0,0,0,.28-.92,4,4,0,0,1-.19-.74c0-.37-.14-.5-.18-.73s-.14-.51-.19-.7-.14-.46-.14-.46a4.92,4.92,0,0,1,.74,1c.09.28.56,1.11.6,1.29s.74.83.88,1.11a7.78,7.78,0,0,0,.6.78c.18.28.6.65.55.46s-.09-.83-.14-1-.14-.51-.18-.65a3.44,3.44,0,0,1-.05-.64s.19-.23.51,0,.83.55.83.55l.6.14h.41l-.87-.92a1.26,1.26,0,0,1-.88-.09c-.37-.23-.23-.28-.55-.37s-.42.09-.42.09l-.18.55.27.83.14.6a5.32,5.32,0,0,0-.69-1.06c-.32-.32-.41-.32-.46-.55a3.11,3.11,0,0,0-.23-.65c-.09-.18-.28-.51-.28-.51l.56,0-.37-.6a1.37,1.37,0,0,1-.33-.28,4.31,4.31,0,0,0-.5-.46s-.14,0-.33-.23a1.07,1.07,0,0,0-.46-.32L62.69,18a11.86,11.86,0,0,0,.23,1.52c.14.51.32,1.29.32,1.29l.14.65.09.32-.09.37-.18.23-.05.23-.23.23-.55-.23-.23.23-.09.28-.37.32-.56.19-.32-.14-.23-.09-.32-.1-.32.28-.19.18a1.15,1.15,0,0,1-.37-.36,5.31,5.31,0,0,0-.46-.7c-.14-.13-.37-.18-.46-.32a2.26,2.26,0,0,0-.28-.32l-.37-.09.28.69.18.5.05.37a1.32,1.32,0,0,0-.41,0c-.14.05-.56.14-.74,0s-.32,0-.46-.09a1.37,1.37,0,0,0-.37-.14l-.46,0h-.28l-.27.41-.42.05-.32,0-.42-.41a.65.65,0,0,0,.14.41,3.24,3.24,0,0,1,.32.42l.11.26Z"/><path class="cls-16" d="M59.25,18.13A1.66,1.66,0,0,0,58,17.32a4.89,4.89,0,0,1-2.4-.64,13,13,0,0,1-1.33-1.32,10.2,10.2,0,0,1-2.35.86,6.8,6.8,0,0,0-2.64,1.33,8.14,8.14,0,0,0-1.43,1.5c-.4.46-.86,1.12-.86,1.12a9.63,9.63,0,0,0-1.29-.59c-.74-.29-2.61.33-3.36-.19a5.68,5.68,0,0,0-2.35-1c-1.32-.34-1.84-1.09-2.35-.8a31,31,0,0,0-3.27,3c-1.09,1.09-3.5,3.73-3.28,5.39a16.33,16.33,0,0,1,.06,4.77c-.23,1.32-1.2,4.59-.51,5.45"/><path class="cls-12" d="M37.34,26.36s-1.75-.61-3.92,1.19a4.56,4.56,0,0,1,4.29-1.93Z"/><path class="cls-16" d="M31.25,41.43a4.44,4.44,0,0,0,.5,1.66,3.25,3.25,0,0,1,.49,2.46c-.25.86-.86,2.21-.31,2.82l.55.62s-.43,2-.13,2.51"/><path class="cls-17" d="M68.48,43.13s.2.23,0,1a8.78,8.78,0,0,1-.83,2.77c-.55.83-.65,1.38-.28,2a3.07,3.07,0,0,1,.28,3.5s2.3,4.15,1.38,7.65-3.59,8.21-4.79,10.6a15,15,0,0,1-3.5,5.07C59.1,77.29,57.53,79.32,58,77s.83-6.09,1.11-7.66l.27-1.56a22.32,22.32,0,0,1-.83-3.6c-.37-2.3-.64-2-.64-3.41a4.74,4.74,0,0,0-.83-2.86c-.28-.18-.83-.83-1.39-.46s-.92.64-.92.92a30,30,0,0,1-.83,4.8A63.67,63.67,0,0,1,52,70.1c-.83,2-2.12,4-2.58,6.09a22.18,22.18,0,0,1-1.48,4.42c-.64,1.66-.92,1.11-1.66,2.4S43.7,86,44.07,82.92s.64-7.1.64-8.49-.27-1.75,0-2.67a10.68,10.68,0,0,0,.1-3,3.71,3.71,0,0,0-.28-2c-.28-.55-1.2-1.66-2-3.23a18.14,18.14,0,0,1-1.2-3c-.55-1.38-.55-.55-1.47-1.93a8,8,0,0,1-1.29-2.86c-.46-1.38-1-1.29-1.29-1.94s-1.3-1.66-.74-3"/><path class="cls-17" d="M30.15,60.46a38.87,38.87,0,0,1,0,4.73c-.19,1.57-.28,4.73.37,6.31s1.39,3.62,2.5,4.36a20.32,20.32,0,0,1,2.6,2,8.37,8.37,0,0,0,2.79,1.3c.74.28,2.32.65,1.39-2a23.85,23.85,0,0,1-1.39-4.64,19.63,19.63,0,0,1-.1-2.69c0-1.49-.18-2,.19-2.6s.46-1.3.93-2.23.83-2.22,2-2.88"/><path class="cls-8" d="M43.61,60.83A15.28,15.28,0,0,0,44,62.59a5.8,5.8,0,0,0,.55,1,1.54,1.54,0,0,1,.37.65c0,.27.18.23.14.69a9.3,9.3,0,0,0,0,1.29,1.9,1.9,0,0,0,0,.55,3.38,3.38,0,0,1,.14.79A7.25,7.25,0,0,0,45.36,70c.23.33.46.37.46.69s0,.74,0,1a1.29,1.29,0,0,0,.09.6c.09.19,0,.42.18.65a.79.79,0,0,1,.19.46l0,.6a.79.79,0,0,1,0,.37,2,2,0,0,1-.14.5,1.5,1.5,0,0,0-.14.79v.73c0,.33-.18-.18,0,.33s.24.6.33.87.14.28.18.46a.79.79,0,0,1,.05.51,4.74,4.74,0,0,0-.09.74,1.49,1.49,0,0,1-.14.55c0,.14-.14-.74-.23-1.2s-.42-.78-.42-.92a4.79,4.79,0,0,0-.09-.55,2.94,2.94,0,0,1-.05-.56,2.51,2.51,0,0,1,0-.55,1.73,1.73,0,0,0,.05-.51,1.05,1.05,0,0,1,0-.41,1.5,1.5,0,0,0,0-.42c0-.13,0-.41,0-.41l-.1-.28a.72.72,0,0,1,0-.27,1.84,1.84,0,0,0,0-.47,1.12,1.12,0,0,1,0-.41c0-.18.09.14,0-.18s-.09-.33,0-.51.09-.23,0-.37.09.14,0-.14l-.14-.27s.14,0,0-.19-.27-.55-.27-.55-.28-3.41-.33-3.6-.13-.78-.13-.78a3.48,3.48,0,0,1,0-.46c.05-.28.19-.42,0-.83a2.53,2.53,0,0,0-.32-.65A12,12,0,0,1,43.65,63a8.52,8.52,0,0,1-.23-1C43.38,61.8,43.52,59.82,43.61,60.83Z"/><path class="cls-7" d="M21.1,47.94a5.34,5.34,0,0,1,1.21-1.69c.49-.5,1-1,1.51-1.45,1-.92,2.12-1.8,3.23-2.64s2.22-1.68,3.36-2.48a5.78,5.78,0,0,0,.82-.6,1.34,1.34,0,0,0,.43-.87A2.85,2.85,0,0,0,31,36.33h0a2.7,2.7,0,0,1,.8,1.91,1.48,1.48,0,0,1-.44,1,6.08,6.08,0,0,1-.82.66c-1.14.81-2.27,1.61-3.39,2.44S24.94,44,23.89,44.89q-.8.68-1.53,1.41a5.47,5.47,0,0,0-1.24,1.64h0Z"/><path class="cls-7" d="M21.83,49.1a7.88,7.88,0,0,1,3.57.72,5.81,5.81,0,0,1,1.54,1A5.43,5.43,0,0,1,28,52.33s0,0,0,0h0A7.76,7.76,0,0,0,26.79,51a6.54,6.54,0,0,0-1.47-1,8.24,8.24,0,0,0-3.49-.86h0Z"/><path class="cls-7" d="M34.11,40.2a3.36,3.36,0,0,1,1,1.72,5.75,5.75,0,0,0,.27,1.9,2.18,2.18,0,0,0,.39.81,9.33,9.33,0,0,1,.55.84,3.56,3.56,0,0,1,.42,1,.71.71,0,0,1-.14.67.87.87,0,0,1-.62.13c-.32,0-.73-.08-.84,0s-.16.46-.18.76a2,2,0,0,0,.06.86,4.35,4.35,0,0,0,.65.61l.39.28a.91.91,0,0,1,.23.22c.06.06,0,.27-.07.28a.66.66,0,0,1-.15.07,2.47,2.47,0,0,0-.89.31,1.9,1.9,0,0,0-.68.64.86.86,0,0,0,0,.9.86.86,0,0,1-.1-.95,1.93,1.93,0,0,1,.66-.76,2.56,2.56,0,0,1,.92-.39L36,50s0,.08,0,.07a.73.73,0,0,0-.14-.1l-.42-.27c-.15-.1-.27-.2-.4-.3a1.31,1.31,0,0,1-.39-.39A2.16,2.16,0,0,1,34.53,48a4.87,4.87,0,0,1,0-.51.85.85,0,0,1,.29-.56,1.05,1.05,0,0,1,.61-.12l.48,0c.39,0,.36,0,.34-.28a3.1,3.1,0,0,0-.36-.85,7.68,7.68,0,0,0-.51-.8,2.41,2.41,0,0,1-.41-1,5.79,5.79,0,0,1-.15-2A3.62,3.62,0,0,0,34.11,40.2Z"/><path class="cls-10" d="M36.23,51.94a7.42,7.42,0,0,1-.14,3.15"/><path class="cls-15" d="M70.15,32.28a13.51,13.51,0,0,1,.24-4.21c.39-1.28.24-2.42-.57-4.36a9.43,9.43,0,0,0-3.65-4.54,11.35,11.35,0,0,1-1.74-1.37c-.5-.46-.87-.8-1.3-.84a4,4,0,0,0-1.45.23,5.85,5.85,0,0,1-.8.2,4.91,4.91,0,0,0-2.49,1.17l-.23.27c-.34.4-1.24,1.48-1.62,1.52l-.27,0a3.39,3.39,0,0,0-2.3.77,4.68,4.68,0,0,0-.36.45c-.23.33-.27.39-.76.35a8,8,0,0,0-1.74.07.37.37,0,0,0-.31.42.39.39,0,0,0,.43.31,7.41,7.41,0,0,1,1.57-.06A1.32,1.32,0,0,0,54.21,22c.09-.11.18-.24.3-.38a3,3,0,0,1,1.82-.54l.28,0c.63-.06,1.36-.88,2.12-1.78l.21-.25A4.27,4.27,0,0,1,61,18.12a8.86,8.86,0,0,0,.89-.21,3.45,3.45,0,0,1,1.17-.22,2.79,2.79,0,0,1,.87.65,11.6,11.6,0,0,0,1.86,1.46A8.66,8.66,0,0,1,69.14,24c.73,1.76.87,2.78.54,3.87a14.18,14.18,0,0,0-.25,4.53,17.26,17.26,0,0,1,0,2.2l.68.76a.48.48,0,0,0,0-.17A23.58,23.58,0,0,0,70.15,32.28Z"/><path class="cls-7" d="M38.82,42.54a2.6,2.6,0,0,1,.61-2.49A2.79,2.79,0,0,1,42,39.64c1.72.47,3.13,1.63,4.83,2.06a19.54,19.54,0,0,0,5.13.81,6.15,6.15,0,0,0,2.51-.5,3.67,3.67,0,0,0,1.78-1.8h0a3.56,3.56,0,0,1-1.73,1.95,5.71,5.71,0,0,1-2.57.57,16.28,16.28,0,0,1-5.18-.92c-1.68-.52-3.13-1.6-4.83-2a2.88,2.88,0,0,0-2.43.37,2.71,2.71,0,0,0-.68,2.37h0Z"/><path class="cls-7" d="M38.58,42a3.26,3.26,0,0,1,.69-2.42,2.6,2.6,0,0,1,2.42-.67,28.5,28.5,0,0,1,4.81,1.67,12.29,12.29,0,0,0,2.44.68c.83.15,1.66.32,2.5.42a7.43,7.43,0,0,0,2.49-.07A3.81,3.81,0,0,0,56,40.26h0v0A3.66,3.66,0,0,1,54,41.73a6.49,6.49,0,0,1-2.56.13c-.85-.08-1.68-.27-2.51-.43a11.38,11.38,0,0,1-2.44-.78A19.76,19.76,0,0,0,41.67,39a2.71,2.71,0,0,0-2.29.61A3.52,3.52,0,0,0,38.6,42h0Z"/><path class="cls-7" d="M39.22,39.64a2.48,2.48,0,0,1,1.86-1,5.93,5.93,0,0,1,2.18.14c1.41.35,2.75.89,4.15,1.27a26.44,26.44,0,0,0,4.2.91,8.92,8.92,0,0,0,2.13,0,5,5,0,0,0,2-.8h0s0,0,0,0a5.45,5.45,0,0,1-4.13,1,20.3,20.3,0,0,1-4.22-1,34.37,34.37,0,0,0-4.14-1.23,8.05,8.05,0,0,0-2.13-.15,2.65,2.65,0,0,0-1.86.9h0Z"/><path class="cls-7" d="M68.77,40.93a2.66,2.66,0,0,0,0-1.94,1,1,0,0,0-.8-.45,1.88,1.88,0,0,0-1,.14c-1.26.49-2.17,1.58-3.39,2.22a10.33,10.33,0,0,1-3.87,1.27,3.42,3.42,0,0,1-2-.39,3.1,3.1,0,0,1-1.31-1.55h0a3.19,3.19,0,0,0,1.35,1.44,3.69,3.69,0,0,0,1.94.34,12,12,0,0,0,3.84-1.19c1.23-.57,2.11-1.7,3.38-2.26a2.14,2.14,0,0,1,1-.17,1.11,1.11,0,0,1,.89.55,2.51,2.51,0,0,1-.12,2,0,0,0,0,1,0,0Z"/><path class="cls-7" d="M69,40.35a3.33,3.33,0,0,0-.17-1.88,1.38,1.38,0,0,0-1.64-.5,12.14,12.14,0,0,0-3.38,1.85,11.71,11.71,0,0,1-3.59,1.51,4.11,4.11,0,0,1-2,.07,2.91,2.91,0,0,1-1.57-1.13v0h0a3,3,0,0,0,1.58,1,4.47,4.47,0,0,0,1.89-.11c.63-.15,1.23-.38,1.85-.59a8.45,8.45,0,0,0,1.74-.84l1.64-1a6.69,6.69,0,0,1,1.76-.86,2.58,2.58,0,0,1,1-.06,1.18,1.18,0,0,1,.78.63,3,3,0,0,1,.08,2h0Z"/><path class="cls-7" d="M68.83,38.39a1.66,1.66,0,0,0-1.37-.69,4.37,4.37,0,0,0-1.55.31A21.32,21.32,0,0,0,63,39.44a11.63,11.63,0,0,1-3,1.26,3.42,3.42,0,0,1-3.12-.61v0h0a3.55,3.55,0,0,0,3.07.45,15.76,15.76,0,0,0,3-1.17c1-.46,1.92-1,2.91-1.48a3.9,3.9,0,0,1,1.62-.31,1.62,1.62,0,0,1,1.37.82s0,0,0,0Z"/><path class="cls-7" d="M46.3,38.79c.75.18,1.5.37,2.24.58s1.48.43,2.21.61a10.79,10.79,0,0,0,2.26.31A6.73,6.73,0,0,0,55.28,40a7.61,7.61,0,0,1-4.58.16c-.75-.2-1.47-.43-2.21-.66S47,39.05,46.3,38.79Z"/><path class="cls-7" d="M51,39.27a5,5,0,0,0,3.44.35,5.06,5.06,0,0,1-3.53-.16.1.1,0,0,1-.06-.14.1.1,0,0,1,.14-.06h0Z"/><path class="cls-7" d="M57.63,39.91a2.24,2.24,0,0,0,1.27.25A4.69,4.69,0,0,0,60.18,40a11.14,11.14,0,0,0,2.4-1.05A20.24,20.24,0,0,1,65,37.7a3.85,3.85,0,0,1,2.6-.29,4.14,4.14,0,0,0-2.53.45,21.71,21.71,0,0,0-2.33,1.24,10.87,10.87,0,0,1-2.47,1A3.33,3.33,0,0,1,57.63,39.91Z"/><path class="cls-7" d="M58.6,39.43a2.09,2.09,0,0,0,.76.09,4.17,4.17,0,0,0,.78-.1,7.78,7.78,0,0,0,1.53-.49,7.46,7.46,0,0,1-1.5.6,4.34,4.34,0,0,1-.8.15,2.23,2.23,0,0,1-.85,0,.12.12,0,0,1-.08-.13.11.11,0,0,1,.14-.08h0Z"/><path class="cls-7" d="M57.62,28.28a3.53,3.53,0,0,0-1.11,2.94,1.91,1.91,0,0,0,.33.67c.17.22.34.44.52.65.36.43.74.86,1.09,1.31a5.51,5.51,0,0,1,1.43,3.29,3.08,3.08,0,0,1-.65,1.8,3.42,3.42,0,0,1-1.52,1.18,3.93,3.93,0,0,1-1.89.17,3.3,3.3,0,0,1-.93-.28l-.75-.38a4.77,4.77,0,0,0-1.47-.48,5.72,5.72,0,0,0-1.55.22,8.9,8.9,0,0,1-1.74.26,1.83,1.83,0,0,1-1.7-.74,1.71,1.71,0,0,1,.18-1.79c.32-.47.88-.94,1.46-.77-.58-.06-1,.45-1.25.89a1.18,1.18,0,0,0,1.29,1.85A8.63,8.63,0,0,0,51,38.71a5.09,5.09,0,0,1,1.78-.33,5.52,5.52,0,0,1,1.76.49l.77.37a2.21,2.21,0,0,0,.69.2,3.11,3.11,0,0,0,1.46-.14,2.63,2.63,0,0,0,1.64-2.19,5.15,5.15,0,0,0-1.14-2.86c-.31-.46-.65-.91-1-1.37-.17-.23-.33-.47-.49-.71a2.11,2.11,0,0,1-.34-.87,2.64,2.64,0,0,1,.4-1.73A4.5,4.5,0,0,1,57.62,28.28Z"/><path class="cls-8" d="M52.18,38.64a2.38,2.38,0,0,1,.16-1.57,2.7,2.7,0,0,0,.23,1.57Z"/><path class="cls-8" d="M52.83,38.69A2.38,2.38,0,0,1,53,37.12a2.71,2.71,0,0,0,.23,1.57Z"/><path class="cls-8" d="M53.47,38.73a2.38,2.38,0,0,1,.16-1.57,2.7,2.7,0,0,0,.23,1.57Z"/><path class="cls-18" d="M40.21,27.23c-.7,1.17-1.61,1.92-2,1.67s-.16-1.39.55-2.56,1.61-1.92,2-1.68S40.92,26.06,40.21,27.23Z"/><path class="cls-11" d="M67.8,33a7.93,7.93,0,0,1,1.34,1,8.15,8.15,0,0,1,1.13,1.28,6,6,0,0,1,.81,1.59,4.7,4.7,0,0,1-.25,3.63,6.58,6.58,0,0,1-1,1.45,9.47,9.47,0,0,1-2.66,2,16.49,16.49,0,0,0,2.35-2.3,5.43,5.43,0,0,0,1.26-3,5.34,5.34,0,0,0-.85-3.11A11.93,11.93,0,0,0,67.8,33Z"/><path class="cls-19" d="M74.61,44.31s-.39-1.34-1.07-1.65c0,0-.13-2.55-.72-3.09,0,0-.21-.68.93-1.53a4.32,4.32,0,0,0,1.41-2.5s2,1.77-.56,4.23"/><path class="cls-19" d="M76.54,37.15s-.37.67.59,1.15c0,0,2-2.28,3-2.46,0,0,.66-1.2-.36-1.7S76.54,37.15,76.54,37.15Z"/><path class="cls-19" d="M77.07,38.59s-.4.71.66,1.23c0,0,2.22-2.43,3.25-2.62,0,0,.73-1.28-.39-1.82S77.07,38.59,77.07,38.59Z"/><path class="cls-19" d="M77.55,40.06s-.39.68.63,1.19c0,0,2.15-2.35,3.14-2.53,0,0,.7-1.24-.38-1.76S77.55,40.06,77.55,40.06Z"/><path class="cls-19" d="M78.56,41s-.38.51.38,1a20.72,20.72,0,0,0,2.74-1.69s.68-.91-.12-1.43S78.56,41,78.56,41Z"/><path class="cls-9" d="M76.47,43.93A3.06,3.06,0,0,0,75,39.82"/></g></g></svg>